<?xml version="1.0" encoding="UTF-8"?>
<svg id="Layer_2" data-name="Layer 2" xmlns="http://www.w3.org/2000/svg" viewBox="0 0 30.98 31.06">
  <defs>
    <style>
      .cls-1 {
        fill: #a0a9cc;
      }

      .cls-2 {
        fill: #414042;
      }
    </style>
  </defs>
  <g id="Layer_1-2" data-name="Layer 1">
    <g>
      <path class="cls-1" d="m12.62,2.07c-.13,0-1.83.35-2.02,1.99s1.43,4.06,3.1,5.28,1.85,1.1,1.85,1.1c0,0,3.03-2.06,3.57-2.96s1.88-2.82,1.45-3.52-1.48-2.35-3.03-1.76-1.97,1.45-1.97,1.45c0,0-1.15-1.74-2.96-1.6Z"/>
      <g>
        <path class="cls-2" d="m8.95,31.06c-1.08-.15-2.14-.4-3.13-.88-3.18-1.52-5.2-3.97-5.71-7.5-.59-4.15,1.3-7.83,4.91-9.89,1.48-.85,3.09-1.3,4.8-1.32,1.95-.03,3.75.49,5.37,1.59.23.15.38.16.62,0,1.43-.93,3-1.43,4.72-1.56,5.23-.38,9.35,3.32,10.26,7.98.59,3.02-.12,5.72-2.09,8.09-.11.13-.22.26-.35.38-.21.19-.5.2-.68.03-.2-.19-.22-.44-.03-.68.36-.45.73-.89,1.03-1.38.99-1.57,1.48-3.28,1.35-5.12-.16-2.21-1.05-4.11-2.61-5.69-1.48-1.51-3.27-2.43-5.38-2.64-1.96-.2-3.79.28-5.48,1.28-.16.1-.19.18-.04.32.2.17.39.36.56.56.15.18.28.2.48.08,1.07-.62,2.24-.94,3.47-.93,3.72.02,7,2.65,7.57,6.29.66,4.2-2.17,7.87-6.05,8.59-4.31.8-8.04-2.13-8.79-6.19-.33-1.8,0-3.5.97-5.05.13-.21.13-.36-.05-.52-.19-.17-.37-.35-.55-.52-.14-.14-.24-.12-.35.05-.65,1.01-1.13,2.1-1.35,3.29-.72,3.88,1.36,7.49,4.5,9.27,1.44.82,2.99,1.23,4.64,1.15,1.61-.07,3.08-.58,4.43-1.46.1-.07.2-.14.3-.2.28-.17.57-.14.73.09.16.22.1.52-.16.71-.46.35-.96.64-1.48.88-1.02.48-2.1.78-3.22.88-.04,0-.08.02-.12.03h-1.82s-.06-.03-.08-.03c-1.63-.16-3.12-.68-4.47-1.61-.15-.1-.25-.06-.38.02-.59.41-1.23.74-1.89,1-.77.31-1.58.47-2.39.61h-2.06Zm12.04-3.27c1.27.02,2.36-.29,3.38-.87,2.49-1.44,3.72-3.96,3.2-6.85-.38-2.12-1.64-3.64-3.56-4.59-1.93-.95-3.88-.97-5.83,0-.18.09-.31.15-.14.4,1.21,1.8,1.7,3.78,1.6,5.94-.09,1.77-.59,3.39-1.58,4.86-.14.21-.11.3.11.41.91.47,1.88.73,2.83.7Zm-11.08,0c1.12,0,2.02-.23,2.94-.72.19-.1.25-.17.11-.38-1.22-1.84-1.76-3.87-1.61-6.08.12-1.69.63-3.24,1.55-4.65.21-.33.21-.33-.14-.51-1.73-.86-3.5-.91-5.27-.2-2.91,1.17-4.65,3.96-4.06,7.24.56,3.07,3.36,5.31,6.49,5.29ZM1.01,21.34c0,1.89.51,3.6,1.62,5.04,1.99,2.57,4.61,3.85,7.88,3.7,1.44-.06,2.75-.52,3.96-1.27.2-.13.16-.19.01-.32-.2-.17-.39-.35-.56-.55-.15-.19-.28-.19-.48-.08-1.46.83-3.03,1.1-4.68.83-4.2-.69-7.27-4.56-6.26-9.05.87-3.87,4.5-6.27,8.28-5.8,1.91.24,3.48,1.12,4.72,2.58,1.98,2.34,2.47,5.64,1,8.35-.12.23-.42.44-.32.71.09.23.35.41.55.6.33.32.35.31.59-.08,1.56-2.49,1.79-5.13.74-7.86-1.54-4.02-5.56-6.28-9.76-5.54-4.26.75-7.38,4.5-7.31,8.74Zm15.37-.05c-.04-1.03-.23-2.05-.73-2.98-.04-.07-.05-.2-.16-.2-.09,0-.11.11-.14.18-.98,1.99-.99,3.97-.01,5.96.04.08.06.2.17.19.1,0,.12-.12.16-.2.48-.92.68-1.91.72-2.96Z"/>
        <path class="cls-2" d="m12.98,1.63c.94,0,1.73.36,2.33,1.09.16.19.23.17.38,0,.8-.95,1.83-1.28,3.02-.99,1.18.29,1.96,1.05,2.22,2.27.15.69.06,1.36-.25,2-.55,1.13-1.38,2.04-2.27,2.89-.74.71-1.54,1.37-2.4,1.95-.45.31-.56.31-1,0-1.56-1.1-3.01-2.32-4.13-3.88-.55-.76-.92-1.59-.85-2.56.03-.36.11-.7.26-1.02.11-.24.37-.34.61-.24.24.09.38.35.29.59-.38.99-.07,1.85.48,2.66.66.99,1.54,1.79,2.46,2.54.39.32.8.62,1.2.93.13.1.24.11.38,0,1.31-.95,2.52-1.99,3.5-3.28.39-.51.72-1.06.8-1.71.14-1.1-.59-2.07-1.64-2.21-1.31-.17-2.22.58-2.35,1.89-.03.34-.21.54-.49.54-.28,0-.51-.2-.5-.53.04-1.18-1.37-2.38-2.78-1.8-.25.1-.46.06-.62-.15-.13-.17-.14-.35-.03-.54.07-.12.18-.18.31-.24.31-.13.65-.2,1.1-.2Z"/>
        <path class="cls-2" d="m23.62,5.3c-.18,0-.36.01-.54,0-.29-.03-.47-.24-.47-.5,0-.25.18-.46.46-.48.38-.02.77-.02,1.15,0,.28.02.44.22.45.48,0,.27-.17.47-.47.49-.19.02-.38,0-.57,0Z"/>
        <path class="cls-2" d="m7.34,5.3c-.18,0-.36.01-.54,0-.29-.03-.47-.22-.47-.49,0-.27.18-.47.47-.49.36-.02.73-.02,1.09,0,.31.02.5.23.49.51,0,.27-.19.45-.49.48-.18.02-.36,0-.54,0,0,0,0,0,0,0Z"/>
        <path class="cls-2" d="m23.51,9.14c0,.34-.35.6-.68.44-.36-.17-.71-.38-1.04-.6-.22-.15-.25-.39-.13-.62.12-.23.35-.3.57-.21.4.16.77.39,1.12.64.11.08.16.2.16.34Z"/>
        <path class="cls-2" d="m23,0c.24,0,.39.1.47.3.08.18.05.37-.1.5-.35.29-.75.51-1.17.68-.21.08-.43.02-.54-.2-.11-.21-.11-.44.07-.58.36-.28.76-.5,1.17-.68.04-.02.08,0,.1-.01Z"/>
        <path class="cls-2" d="m9.39,8.59c0,.2-.09.35-.26.45-.29.17-.59.35-.89.51-.28.15-.57.06-.71-.18-.12-.23-.05-.49.2-.65.31-.19.62-.38.94-.54.36-.17.7.04.71.41Z"/>
        <path class="cls-2" d="m7.98,0c.09,0,.18.02.26.07.3.18.61.34.91.53.24.15.31.43.19.66-.11.21-.38.32-.63.2-.36-.18-.71-.38-1.04-.61-.18-.12-.25-.32-.16-.53.08-.21.24-.32.47-.31Z"/>
      </g>
    </g>
  </g>
</svg>