<?xml version="1.0" encoding="UTF-8"?>
<svg id="Layer_2" data-name="Layer 2" xmlns="http://www.w3.org/2000/svg" viewBox="0 0 27.43 18.62">
  <defs>
    <style>
      .cls-1 {
        fill: #787f70;
      }

      .cls-2 {
        fill: #a0a9cc;
      }

      .cls-3 {
        fill: #414042;
      }
    </style>
  </defs>
  <g id="Layer_1-2" data-name="Layer 1">
    <g>
      <g>
        <path class="cls-1" d="m9.62,4.76l8.48.11.32,2.53-3.13-.11-.21,1.34s-.56.49-.67.49-.99-.14-.99-.25-.18-1.65-.18-1.65l-.6.04-.32,1.2-.28,1.41s-.6.32-.81.11-.67-2.5-.67-2.5l-1.48-.21.53-2.5Z"/>
        <path class="cls-1" d="m9.97,4.34c-.25-.39-1.51-3.52-1.51-3.52l2.64.14,1.79,1.06.28.6-1.23.63-.35,1.16-1.62-.07Z"/>
        <path class="cls-2" d="m11.59,4.27c.11-.32.8-1.9.8-1.9h1.66s1.16.88,1.16.88l.67,1.16-4.29-.14Z"/>
        <path class="cls-1" d="m14.51,2.16c.14.04,1.23,1.23,1.23,1.23l.35,1.2,1.51-.04,1.44-3.66s-.49-.53-.6-.53-3.94,1.79-3.94,1.79Z"/>
        <g id="H8Efpz.tif">
          <path class="cls-3" d="m24.87,16.8c-.33,0-.66,0-.99,0-.18,0-.27.06-.31.24-.26.98-1.04,1.58-2.05,1.58-5.19,0-10.39,0-15.58,0-1.03,0-1.79-.59-2.07-1.6-.05-.17-.13-.23-.3-.23-.67,0-1.34.01-2,0-1.21-.03-1.94-1.25-1.36-2.28.28-.5.72-.78,1.31-.79.61,0,1.21,0,1.82,0,.18,0,.26-.04.29-.24.17-1.34,1.31-2.11,2.63-1.77.13.03.22.02.32-.06.5-.41,1.08-.52,1.71-.41.15.03.19-.02.2-.16.05-.88.11-1.76.16-2.64.06-1.03.11-2.06.17-3.09.02-.4.16-.75.54-.96.14-.08.11-.15.04-.26-.62-.92-1.01-1.94-1.34-2.98-.23-.71.26-1.25.99-1.13.96.16,1.91.35,2.82.71.59.23,1.08.58,1.46,1.08.15.19.69.21.83.02.51-.7,1.24-1.06,2.03-1.3.78-.24,1.57-.4,2.37-.53.62-.09,1.09.48.9,1.1-.24.77-.53,1.53-.9,2.25-.14.27-.28.54-.46.78-.08.11-.09.18.04.25.39.22.51.59.54,1.01.07,1.36.15,2.72.23,4.08.03.51.07,1.01.1,1.52,0,.17.07.21.23.2.48-.02.92.12,1.29.42.12.1.23.12.39.08,1.31-.33,2.46.47,2.58,1.81.02.19.12.21.26.21.7,0,1.41,0,2.11,0,.9,0,1.58.64,1.58,1.49,0,.89-.65,1.56-1.56,1.58-.33,0-.66,0-.99,0Zm-8.15-.88c2.97,0,5.93,0,8.9,0,.12,0,.23,0,.35,0,.33-.03.56-.28.6-.62.03-.3-.18-.59-.48-.69-.16-.05-.32-.05-.48-.05-3.71,0-7.41,0-11.12,0-.1,0-.2,0-.29,0-.22-.02-.38-.19-.39-.4,0-.22.16-.4.39-.43.08,0,.16,0,.24,0,1.16,0,2.32,0,3.47,0,.33,0,.34,0,.33-.35,0-.22-.03-.44-.04-.67-.09-1.59-.19-3.18-.27-4.77,0-.15-.05-.23-.21-.23-.67,0-1.34,0-2,0-.16,0-.23.07-.22.22,0,.21,0,.43-.03.64-.09.57-.56,1-1.14,1.02-.6.02-1.11-.35-1.25-.92-.06-.24-.05-.48-.05-.72,0-.09.03-.22-.11-.23-.17-.01-.13.14-.13.23,0,.39,0,.78,0,1.18-.03.69-.53,1.21-1.19,1.24-.62.03-1.15-.46-1.25-1.12-.05-.35-.02-.69-.02-1.04,0-.52,0-.51-.51-.51-.2,0-.28.06-.29.27-.03.73-.07,1.46-.12,2.18-.06,1.07-.13,2.15-.2,3.22-.02.25.05.34.32.34.79-.02,1.59,0,2.38,0,.26,0,.52,0,.77,0,.23.01.38.18.38.4,0,.24-.14.4-.38.43-.1,0-.2,0-.29,0-3.51,0-7.02,0-10.53,0-.17,0-.34,0-.5.05-.34.11-.53.46-.43.81.09.33.32.5.7.5,1.38,0,2.76,0,4.14,0,.33,0,.54.18.54.43,0,.25-.21.43-.54.44-.24,0-.48,0-.72,0-.34,0-.37.05-.2.34.26.45.65.61,1.16.61,5.16,0,10.32,0,15.48,0,.06,0,.12,0,.19,0,.39,0,.68-.19.9-.49.08-.11.2-.26.15-.38-.06-.14-.24-.07-.36-.07-4.85,0-9.69,0-14.54,0-.12,0-.25,0-.37-.02-.23-.04-.37-.17-.39-.41-.02-.21.15-.4.39-.44.11-.02.23-.02.35-.02,2.98,0,5.97,0,8.95,0Zm-2.99-10.81c-.51,0-1.02,0-1.52,0-.73,0-1.46,0-2.19,0-.19,0-.33.03-.34.27-.02.43-.04.85-.08,1.28-.01.15.06.19.18.18.19,0,.37,0,.56,0,.52.01.83.32.83.84,0,.45,0,.91,0,1.36,0,.3.14.46.36.47.24,0,.35-.14.36-.46,0-.46,0-.93,0-1.39.01-.51.32-.8.83-.82.12,0,.23,0,.35,0,.51.02.81.32.82.83,0,.23,0,.46,0,.69.01.23.17.39.36.39.19,0,.35-.16.36-.39,0-.2,0-.41,0-.61,0-.61.3-.9.9-.91.69,0,1.39,0,2.08,0,.19,0,.27-.03.25-.25-.04-.36-.05-.73-.07-1.09-.02-.36-.05-.39-.41-.39-1.21,0-2.42,0-3.63,0Zm2.72-.84c.23.04.4-.06.56-.21.15-.14.29-.29.4-.46.5-.78.83-1.63,1.12-2.5.06-.19,0-.22-.18-.19-.62.12-1.24.23-1.85.43-.5.16-1,.32-1.4.7-.16.15-.23.26.01.39.11.06.2.15.28.24.15.19.27.17.43,0,.19-.19.4-.35.61-.52.26-.21.49-.21.66-.01.18.2.14.45-.11.67-.27.23-.53.48-.82.69-.27.19-.13.41-.09.62.04.23.24.11.37.14Zm-5.45,0c.12-.03.31.08.36-.13.04-.22.18-.45-.09-.65-.3-.22-.58-.47-.85-.73-.22-.19-.23-.45-.06-.64.17-.18.39-.19.62,0,.24.2.48.4.71.61.12.11.2.1.31-.01.12-.13.26-.25.4-.35.15-.1.11-.17.01-.27-.22-.23-.48-.39-.77-.52-.83-.35-1.7-.52-2.58-.68-.2-.04-.18.06-.14.2.15.47.33.94.53,1.39.26.56.5,1.12.97,1.55.16.15.34.26.58.22Zm2.72,0c.42,0,.84,0,1.25,0,.2,0,.25-.08.22-.26-.12-.67-.76-1.2-1.47-1.2-.7,0-1.35.53-1.47,1.2-.03.18.02.27.22.26.42,0,.83,0,1.25,0Zm-6.22,9.46c.2,0,.39,0,.59,0,.16,0,.22-.06.23-.22.02-.38.04-.76.07-1.14.01-.15-.06-.21-.18-.25-.43-.14-.81-.06-1.14.24-.35.3-.44.7-.37,1.14.03.16.12.25.29.23.17-.01.34,0,.51,0Zm12.23,0c.14,0,.28,0,.43,0,.1,0,.17-.03.2-.13.12-.38.07-.74-.17-1.06-.24-.33-.58-.48-.99-.48-.12,0-.18.07-.16.19.05.3.03.6.05.9.05.58.05.58.64.58Zm2.14,0c.23,0,.4,0,.58,0,.15,0,.18-.07.17-.2-.06-.58-.61-1.06-1.2-1.04-.18,0-.27.05-.21.25.04.12.04.24.06.37.03.2-.11.46.03.58.14.13.41.02.57.04Zm-16.71,0c.17,0,.34,0,.51,0,.12,0,.19-.05.16-.18-.07-.29-.02-.56.04-.84.03-.13,0-.2-.14-.22-.56-.09-1.23.45-1.25,1.01,0,.15.03.24.2.23.16,0,.32,0,.48,0Z"/>
        </g>
      </g>
      <path class="cls-3" d="m1.63,6.01c.28,0,.48.2.48.54,0,.26.08.38.35.36.06,0,.12.01.17.02.26.05.39.22.39.47,0,.24-.19.42-.45.44q-.43.04-.46.43c-.02.3-.21.49-.47.5-.25,0-.43-.18-.48-.46,0-.05-.01-.1,0-.14.03-.26-.08-.34-.33-.33-.36.01-.53-.14-.55-.41-.02-.3.14-.48.5-.5.3-.01.4-.13.39-.42,0-.31.2-.49.46-.5Z"/>
    </g>
  </g>
</svg>