<?xml version="1.0" encoding="UTF-8"?>
<svg id="Layer_2" data-name="Layer 2" xmlns="http://www.w3.org/2000/svg" viewBox="0 0 24.44 29.85">
  <defs>
    <style>
      .cls-1 {
        fill: #787f70;
      }

      .cls-2 {
        fill: #a0a9cc;
      }

      .cls-3 {
        fill: #414042;
      }
    </style>
  </defs>
  <g id="Layer_1-2" data-name="Layer 1">
    <g>
      <path class="cls-1" d="m7.73,5.73l.07,3.21s1.9-1.06,1.97-1.03,2.11.56,2.11.56l2.44-.61s2.02.73,2.09.7.19-2.86.19-2.86l-.52-.59-7.37.09-.99.52Z"/>
      <polygon class="cls-2" points="11.7 .57 12.45 .97 13.69 .54 14.87 1.22 15.2 2.23 14.7 3.5 12.38 5.24 9.38 3.41 9.28 1.32 10.71 .64 11.7 .57"/>
      <g>
        <path class="cls-3" d="m5.75,29.85c-.49-.3-.63-.6-.53-1.17.17-.94.92-1.65,1.88-1.76.64-.07,1.3-.11,1.93-.22,1.05-.19,1.75-1.07,1.76-2.12,0-.23-.06-.31-.3-.3-.83.01-1.67,0-2.5,0-2.14,0-4.29,0-6.43,0-.83,0-1.43-.52-1.55-1.32-.12-.79.45-1.56,1.25-1.68.42-.06.83-.04,1.25-.03.24,0,.32-.09.32-.33,0-1.44,0-2.87,0-4.31,0-.99.5-1.48,1.49-1.49.03,0,.06,0,.09,0,.81-.01.7.11.7-.72,0-1.04,0-2.08,0-3.11,0-.49.12-.92.55-1.22.31-.22.67-.23,1.03-.23.71,0,.61.06.61-.63,0-1.03,0-2.06,0-3.08,0-.84.52-1.36,1.36-1.37.46,0,.93,0,1.44,0-.25-.28-.51-.5-.71-.77-.57-.78-.85-1.62-.52-2.57.45-1.29,2-1.8,3.14-1.05.15.1.24.09.38,0,.7-.46,1.43-.46,2.15-.08.71.37,1.07.98,1.11,1.79.04.89-.34,1.61-.93,2.25-.12.14-.25.27-.38.41.06.07.15.03.23.03.4,0,.8,0,1.19,0,.8,0,1.33.53,1.33,1.34,0,1.12,0,2.23,0,3.35,0,.4,0,.39.41.4.23,0,.47.01.7.03.52.05.96.47,1.05.98.03.18.04.37.04.55,0,1.11,0,2.21,0,3.32,0,.4,0,.4.41.4.22,0,.45,0,.67.02.77.1,1.2.58,1.2,1.35,0,1.44,0,2.87,0,4.31,0,.44,0,.43.43.44.36,0,.72-.02,1.07.03.77.11,1.36.78,1.34,1.52-.03.82-.67,1.47-1.49,1.49-.51.01-1.03,0-1.54,0-2.46,0-4.93,0-7.39,0-.39,0-.41.03-.38.42.1,1.18.92,1.97,2.1,2.06.56.04,1.12.1,1.68.17.9.12,1.66.88,1.8,1.78.08.57-.05.85-.53,1.14H5.75Zm6.46-6.53c3.46,0,6.93,0,10.39,0,.12,0,.23,0,.35,0,.28-.02.48-.19.52-.46.04-.27-.08-.47-.32-.6-.15-.08-.32-.07-.48-.07-5.08,0-10.17,0-15.25,0-.12,0-.23,0-.35,0-.24-.04-.38-.19-.4-.43-.02-.23.11-.39.32-.46.16-.05.32-.05.49-.05,2.35,0,4.7,0,7.04,0,1.92,0,3.84,0,5.76,0,.26,0,.37-.07.35-.35-.02-.43-.01-.85,0-1.28,0-.18-.04-.29-.22-.35-.22-.07-.41-.21-.6-.35-.65-.47-1.05-.48-1.72-.01-.99.68-1.78.68-2.76,0-.66-.46-1.07-.46-1.72.01-.25.18-.5.34-.79.41-.74.18-1.39.02-1.99-.45-.57-.44-1.01-.42-1.6-.02-.12.08-.24.17-.36.24-.3.19-.63.28-.99.29-.56.02-1.04-.16-1.48-.5-.61-.46-1.06-.45-1.67-.02-.23.16-.46.33-.73.41-.15.04-.19.14-.18.28,0,.46,0,.91,0,1.37,0,.21.07.3.28.29.23-.01.47,0,.7,0,.11,0,.21,0,.32.02.29.05.46.24.44.49-.02.26-.21.44-.51.44-1.09,0-2.17,0-3.26,0-.52,0-.82.21-.81.58,0,.37.27.55.79.55,3.49,0,6.98,0,10.48,0Zm1.44-13.49c.74,0,1.47,0,2.21,0,.13,0,.31.01.29-.19-.02-.21.15-.49-.15-.61-.26-.1-.49-.23-.71-.39-.63-.45-1.03-.45-1.67,0-.97.67-1.77.66-2.73-.03-.51-.37-1.02-.38-1.55-.07-.23.14-.45.32-.71.4-.33.11-.38.32-.37.62.01.22.1.29.3.28.24,0,.49-.02.73.03.29.06.45.31.37.59-.08.25-.27.33-.52.33-.87,0-1.75,0-2.62,0-.34,0-.45.11-.46.45,0,.38,0,.76,0,1.13,0,.13.03.22.17.26.32.09.59.29.87.46.53.33,1.07.35,1.57-.05.83-.67,1.94-.67,2.79,0,.53.42.99.4,1.55.02.21-.14.4-.31.65-.39.73-.24,1.41-.17,2.04.29.71.51,1.1.51,1.82.02.2-.14.4-.27.64-.34.16-.04.21-.14.21-.3,0-.33,0-.66,0-.99,0-.5-.08-.57-.57-.57-2.1,0-4.21,0-6.31,0-.1,0-.2,0-.29,0-.24-.04-.38-.18-.39-.43-.01-.25.11-.41.35-.47.16-.03.33-.04.49-.04.67,0,1.34,0,2.01,0Zm-1.44,6.24c-2.64,0-5.27,0-7.91,0-.43,0-.51.08-.51.51,0,.45,0,.89,0,1.34,0,.12-.06.3.04.35.11.06.22-.09.32-.16.97-.68,1.79-.68,2.76,0,.66.46,1.08.45,1.75-.02.91-.64,1.78-.64,2.69,0,.68.48,1.08.49,1.77,0,.27-.19.55-.36.88-.43.68-.14,1.29.01,1.83.44.29.23.61.36.99.33.34-.03.6-.21.86-.4.54-.39,1.12-.5,1.76-.36.37.08.67.29.97.5.05.04.1.11.18.07.07-.04.04-.12.04-.19,0-.48,0-.95,0-1.43,0-.5-.06-.57-.57-.57-2.62,0-5.24,0-7.85,0Zm0,12.89c.35,0,.7,0,1.05,0,1.57,0,3.14,0,4.71,0,.28,0,.33-.07.23-.33-.15-.38-.42-.67-.84-.73-.52-.08-1.06-.14-1.59-.18-1.35-.1-2.33-.71-2.87-1.98-.16-.38-.18-.79-.22-1.19,0-.1,0-.21-.14-.26-.53-.16-.81.02-.84.55-.07,1.42-1.19,2.64-2.6,2.82-.59.07-1.17.12-1.76.18-.49.05-.87.26-1.09.71-.16.33-.1.41.25.41,1.9,0,3.8,0,5.7,0Zm0-23.25c-1.15,0-2.31,0-3.46,0-.43,0-.48.06-.48.49,0,.46,0,.91,0,1.37,0,.14-.07.35.04.41.14.08.27-.1.4-.18.93-.59,1.84-.62,2.76.05.6.45,1.01.44,1.62,0,.42-.31.87-.49,1.4-.49.56,0,1.01.24,1.43.57.06.04.12.12.2.08.08-.04.05-.14.05-.21,0-.54,0-1.09,0-1.63,0-.39-.07-.45-.46-.46-1.16,0-2.33,0-3.49,0Zm.01,9.41c.83,0,1.67,0,2.5,0,1.11,0,2.21,0,3.32,0,.26,0,.34-.08.33-.34-.02-.33,0-.66,0-.99,0-.16-.04-.23-.2-.12-.05.03-.1.06-.15.1-.83.66-1.97.68-2.85,0-.54-.43-1.01-.41-1.57.03-.78.62-1.93.66-2.72.01-.16-.13-.35-.24-.56-.3-.44-.11-.79.06-1.13.31-.84.62-1.7.6-2.58.08-.12-.07-.25-.15-.37-.23-.14-.09-.19-.04-.19.11,0,.32.02.64,0,.96-.02.29.07.38.37.38,1.93-.01,3.86,0,5.79,0Zm-.03-10.37c.21,0,.38,0,.55-.09.53-.31,1.03-.66,1.43-1.13.32-.37.53-.78.57-1.28.04-.46-.23-.96-.66-1.17-.46-.22-.94-.15-1.29.19-.4.39-.74.4-1.13.01-.32-.32-.7-.4-1.12-.27-.41.14-.69.42-.8.85-.11.46.01.89.25,1.28.37.6.91,1.02,1.5,1.39.23.14.46.25.7.21Z"/>
        <path class="cls-3" d="m2.76,13c0,.26-.17.46-.49.47-.32.01-.44.11-.43.44.01.29-.22.48-.48.47-.25,0-.47-.19-.45-.47.02-.34-.11-.43-.43-.44-.33-.01-.51-.23-.49-.5.02-.27.21-.44.55-.42.29.02.36-.09.36-.37-.01-.35.2-.57.49-.56.27,0,.48.22.46.56-.02.3.1.38.38.37.32-.02.52.18.52.45Z"/>
        <path class="cls-3" d="m21,4.69c.28,0,.48.2.48.54,0,.26.08.38.35.36.06,0,.12.01.17.02.26.05.39.22.39.47,0,.24-.19.42-.45.44q-.43.04-.46.43c-.02.3-.21.49-.47.5-.25,0-.43-.18-.48-.46,0-.05-.01-.1,0-.14.03-.26-.08-.34-.33-.33-.36.01-.53-.14-.55-.41-.02-.3.14-.48.5-.5.3-.01.4-.13.39-.42,0-.31.2-.49.46-.5Z"/>
      </g>
    </g>
  </g>
</svg>