<?xml version="1.0" encoding="UTF-8"?>
<svg id="Layer_2" data-name="Layer 2" xmlns="http://www.w3.org/2000/svg" viewBox="0 0 27.73 25.43">
  <defs>
    <style>
      .cls-1 {
        fill: #a0a9cc;
      }

      .cls-2 {
        fill: #414042;
      }
    </style>
  </defs>
  <g id="Layer_1-2" data-name="Layer 1">
    <g>
      <path class="cls-1" d="m4.75,11.91c-.07.05-1.15.59-1.15.59,0,0-.82.26-.82.38s-.12,1.38,0,1.48.87.54,1.13.63,1.24.12,1.24.12l1.03-1.78-.09-1.01-1.34-.4Z"/>
      <path class="cls-1" d="m24.47,12.23c-.08,0-1.29-.08-1.29-.08,0,0-.84-.19-.9-.09s-.8,1.13-.75,1.27.48.91.65,1.12,1.01.73,1.01.73l1.79-1.01.43-.92-.95-1.02Z"/>
      <g id="kRODRz.tif">
        <g>
          <path class="cls-2" d="m13.86,9.59c-3.57,0-7.14.02-10.71-.01-1.55-.02-2.35.79-2.31,2.31.04,1.32,0,2.65,0,3.97,0,.1,0,.2-.01.3-.05.21-.2.33-.4.33-.21,0-.36-.11-.42-.32-.02-.09-.02-.18-.02-.27,0-1.5,0-3.01,0-4.51,0-1.45,1.21-2.64,2.66-2.64.96,0,1.93,0,2.89,0,.2,0,.34-.06.47-.2,2.02-2.15,4.05-4.3,6.09-6.45.1-.11.14-.21.13-.36C12.18.8,12.96-.01,13.88,0c.92.01,1.67.81,1.61,1.74-.01.16.04.27.15.38,1.9,2,3.81,3.99,5.67,6.02.43.46.84.66,1.46.62.78-.05,1.57-.02,2.35-.01,1.39,0,2.6,1.22,2.61,2.61,0,1.52,0,3.04,0,4.57,0,.04,0,.07,0,.11-.01.3-.18.48-.44.47-.24,0-.41-.19-.41-.48,0-1.36,0-2.72,0-4.08,0-.2,0-.4-.02-.59-.08-1.09-.87-1.77-2.03-1.77-2.37,0-4.74,0-7.11,0-1.29,0-2.58,0-3.87,0Zm-6.81-.87h13.62c-.04-.05-.06-.08-.09-.11-1.8-1.9-3.59-3.79-5.39-5.7-.13-.14-.21-.11-.33-.01-.64.48-1.37.48-2,0-.17-.13-.24-.09-.37.05-1.13,1.21-2.28,2.41-3.42,3.61-.67.71-1.33,1.41-2.03,2.15ZM14.61,1.62c0-.42-.34-.75-.76-.74-.41,0-.73.33-.73.75,0,.43.31.75.75.75.43,0,.75-.32.74-.75Z"/>
          <path class="cls-2" d="m13.86,25.43c-3.69,0-7.37,0-11.06,0-1.15,0-2.02-.51-2.55-1.56-.15-.3-.25-.62-.25-.96,0-1.59,0-3.17,0-4.76,0-.04,0-.09,0-.13.05-.22.18-.35.41-.36.22,0,.4.14.42.37.02.23,0,.47,0,.7,0,1.27,0,2.54,0,3.81,0,.77.28,1.41.99,1.79.23.13.48.2.75.2.09,0,.18,0,.27,0,7.34,0,14.67,0,22.01,0,.66,0,1.2-.19,1.61-.71.31-.39.39-.85.39-1.32,0-1.42,0-2.85,0-4.27,0-.1,0-.2.01-.3.04-.21.18-.33.39-.34.23,0,.38.11.43.33.02.09.01.2.01.3,0,1.48,0,2.96,0,4.43,0,1.56-1.18,2.75-2.75,2.76-1.42,0-2.85,0-4.27,0-2.28,0-4.56,0-6.84,0Z"/>
          <path class="cls-2" d="m4.89,15.48c-.84-.08-1.66-.24-2.3-.86-.52-.5-.67-1.15-.42-1.75.26-.62.78-.92,1.54-.9.12,0,.18-.05.25-.12.55-.54,1.18-.65,1.8-.32.59.31.91.99.79,1.7-.14.85-.6,1.51-1.18,2.11-.13.13-.3.16-.48.14Zm.79-2.37c0-.5-.17-.77-.46-.85-.31-.09-.56.04-.75.41-.16.29-.33.35-.68.23-.41-.14-.8.06-.86.47-.05.31.13.54.35.72.42.34.93.45,1.46.5.07,0,.15,0,.2-.07.39-.44.7-.91.75-1.4Z"/>
          <path class="cls-2" d="m25.67,13.64c-.03.63-.53,1.12-1.21,1.45-.52.25-1.09.36-1.67.39-.17,0-.32-.03-.44-.16-.58-.6-1.04-1.27-1.17-2.12-.11-.69.23-1.38.82-1.68.61-.31,1.24-.2,1.77.33.09.09.17.13.31.12.87-.08,1.6.6,1.6,1.67Zm-3.63-.65c0,.35.14.65.31.94.41.7.48.74,1.27.55.39-.1.75-.25,1.01-.58.21-.27.23-.56.05-.8-.18-.25-.44-.31-.77-.19-.33.12-.5.05-.66-.26-.11-.21-.25-.37-.5-.4-.42-.05-.71.25-.71.75Z"/>
          <path class="cls-2" d="m6.28,19.67c-.16.28-.31.56-.47.84-.22.38-.46.38-.67,0-.16-.28-.3-.56-.5-.84,0,.24,0,.48,0,.72,0,.43,0,.86,0,1.3,0,.28-.1.39-.36.4-.27.01-.41-.1-.41-.38,0-1.05,0-2.11,0-3.16,0-.21.05-.43.31-.48.24-.05.45.03.58.25.2.34.39.69.58,1.03.04.07.06.17.15.17.08,0,.09-.1.13-.16.18-.32.36-.64.54-.97.09-.16.21-.29.4-.33.28-.06.47.07.52.36.01.08.02.16.02.24,0,.99,0,1.98,0,2.97,0,.33-.1.44-.37.45-.27,0-.4-.11-.4-.38,0-.59,0-1.17,0-1.76,0-.09,0-.17,0-.26-.01,0-.03,0-.04-.01Z"/>
          <path class="cls-2" d="m13.92,20.06c0-.52,0-1.04,0-1.57,0-.37.08-.46.44-.45.45,0,.9-.05,1.35.05.5.11.78.39.86.88.09.55-.09,1.01-.52,1.26-.13.07-.14.13-.07.25.18.33.36.66.54,1,.14.26.09.44-.15.56-.22.12-.39.06-.53-.2-.21-.4-.42-.79-.62-1.2-.09-.18-.22-.22-.4-.19-.18.04-.11.2-.12.31,0,.31,0,.61,0,.92,0,.27-.11.38-.37.38-.26,0-.38-.1-.4-.37-.01-.28,0-.56,0-.84,0-.27,0-.54,0-.81Zm.78-.8c.02.63-.12.58.58.57.39,0,.53-.17.53-.55,0-.37-.16-.53-.55-.54-.66,0-.55-.05-.56.53Z"/>
          <path class="cls-2" d="m10.82,20.06c0-.53,0-1.06,0-1.59,0-.34.08-.43.41-.42.46,0,.92-.05,1.37.05.49.11.78.39.84.83.07.52.03,1-.48,1.3-.15.09-.16.16-.08.3.18.32.35.65.53.98.13.24.08.41-.14.54-.22.12-.4.07-.54-.18-.22-.4-.42-.8-.62-1.2-.08-.16-.18-.24-.36-.2-.21.04-.14.2-.15.32,0,.31,0,.61,0,.92,0,.28-.14.39-.41.38-.26,0-.36-.12-.36-.4,0-.54,0-1.08,0-1.62Zm.78-.79q0,.6.59.55c.35-.03.52-.22.52-.56,0-.34-.18-.53-.54-.54-.67-.01-.56-.05-.57.54Z"/>
          <path class="cls-2" d="m21.28,20.07c0-.52,0-1.04,0-1.57,0-.36.1-.46.45-.45.42,0,.85-.05,1.27.05.53.12.84.47.89,1.01.05.65.05,1.29,0,1.94-.05.57-.46.98-1.07,1.02-.39.03-.79.01-1.19,0-.27,0-.35-.18-.35-.42,0-.02,0-.04,0-.05,0-.51,0-1.03,0-1.54Zm.77-.01c0,.28,0,.56,0,.84,0,.54-.1.52.53.51.33,0,.49-.12.53-.45.07-.59.07-1.18,0-1.77-.04-.31-.21-.43-.51-.45-.11,0-.22,0-.32,0-.16-.01-.22.06-.22.22,0,.37,0,.74,0,1.11Z"/>
          <path class="cls-2" d="m10.6,13.17c0-.43,0-.86,0-1.3,0-.25.11-.36.36-.36.26,0,.38.11.38.37,0,.71,0,1.42,0,2.13,0,.13,0,.25.03.38.06.36.26.53.58.51.34-.02.53-.22.54-.59.01-.79,0-1.58,0-2.38,0-.31.12-.43.39-.42.23,0,.39.11.38.36,0,.91.06,1.82-.04,2.72-.05.45-.31.76-.74.9-.36.12-.73.12-1.09.01-.48-.15-.77-.53-.8-1.04,0-.03,0-.05,0-.08,0-.41,0-.81,0-1.22h0Z"/>
          <path class="cls-2" d="m10.48,21.73c-.01.22-.17.29-.34.33-.16.04-.31.01-.39-.16-.01-.02-.02-.05-.03-.08-.08-.2-.04-.51-.23-.58-.33-.1-.69-.04-1.04-.03-.1,0-.13.09-.15.17-.04.13-.07.26-.11.39-.09.28-.22.35-.48.27-.25-.08-.33-.21-.25-.47.32-1.07.66-2.13.98-3.2.08-.27.28-.37.53-.37.24,0,.42.11.5.37.32,1.07.65,2.13.98,3.2.02.05.02.11.03.15Zm-1.5-2.56s-.04,0-.06.01c-.08.28-.16.57-.24.85-.17.62-.28.56.45.56.02,0,.04,0,.05,0,.12,0,.18-.05.14-.19-.12-.41-.23-.82-.35-1.24Z"/>
          <path class="cls-2" d="m19.67,22.08c-.29,0-.58,0-.86,0-.31,0-.41-.1-.41-.4,0-1.07,0-2.14,0-3.21,0-.32.1-.42.43-.42.58,0,1.15,0,1.73,0,.22,0,.36.08.37.32,0,.24-.1.35-.36.36-.37,0-.74,0-1.11,0-.19,0-.29.05-.27.26.01.2,0,.4,0,.59,0,.14.06.2.2.19.18,0,.36,0,.54,0,.17,0,.27.09.29.26.02.18-.06.31-.24.33-.16.02-.32.03-.48.02-.24-.02-.33.09-.31.32.01.12.01.25,0,.38-.03.27.09.34.34.33.33-.02.67,0,1,0,.29,0,.41.1.4.35,0,.25-.1.33-.41.33-.28,0-.56,0-.84,0Z"/>
          <path class="cls-2" d="m14.93,15.59c-.31,0-.61-.07-.88-.21-.13-.07-.24-.16-.32-.28-.12-.19-.08-.36.07-.51.15-.15.29-.09.43.02.27.22.56.37.92.25.37-.12.45-.5.17-.76-.13-.12-.3-.19-.47-.27-.24-.11-.48-.21-.68-.38-.66-.52-.53-1.5.24-1.83.49-.21.99-.18,1.48,0,.26.09.34.29.23.51-.11.24-.28.24-.49.14-.26-.12-.53-.17-.81-.08-.14.05-.24.13-.27.28-.03.15.04.26.16.35.27.2.6.28.89.45.39.23.64.55.67,1.01.05.8-.47,1.32-1.32,1.32Z"/>
          <path class="cls-2" d="m10.03,13.22c-.02.39.04.87-.04,1.36-.1.58-.4.88-.99.99-.36.06-.7,0-1.02-.16-.36-.19-.56-.49-.57-.91,0-.22.08-.37.32-.39.22-.02.4.04.45.28,0,.04.01.07.02.11.07.28.26.43.52.41.29-.02.5-.18.51-.46.02-.69.01-1.39.01-2.08,0-.24-.19-.17-.32-.17-.33-.01-.45-.11-.43-.37,0-.19.1-.31.3-.31.29,0,.58,0,.86,0,.25,0,.38.14.38.39,0,.41,0,.81,0,1.32Z"/>
          <path class="cls-2" d="m17.47,13.81c0-.43-.01-.86,0-1.3,0-.24-.06-.36-.32-.32-.13.02-.27,0-.4,0-.22,0-.3-.13-.31-.33,0-.21.08-.35.31-.35.47,0,.94,0,1.4,0,.24,0,.49,0,.73,0,.24,0,.35.13.34.36,0,.21-.11.33-.34.33-.21,0-.48-.1-.62.05-.16.17-.05.45-.06.68,0,.74,0,1.48,0,2.21,0,.29-.11.4-.38.4-.27,0-.36-.11-.37-.41,0-.44,0-.88,0-1.32Z"/>
          <path class="cls-2" d="m17.04,20.04c0-.53,0-1.06,0-1.59,0-.28.11-.39.36-.39.26,0,.41.11.41.39,0,1.09,0,2.18,0,3.26,0,.28-.14.39-.41.38-.26-.01-.36-.12-.36-.4,0-.55,0-1.1,0-1.65Z"/>
        </g>
      </g>
    </g>
  </g>
</svg>