<?xml version="1.0" encoding="UTF-8"?>
<svg id="Layer_2" data-name="Layer 2" xmlns="http://www.w3.org/2000/svg" viewBox="0 0 29.02 29.01">
  <defs>
    <style>
      .cls-1 {
        fill: #8e9284;
      }

      .cls-2 {
        fill: #f1f2f2;
      }

      .cls-3 {
        fill: #a0a9cc;
      }

      .cls-4 {
        fill: #414042;
      }
    </style>
  </defs>
  <g id="Layer_1-2" data-name="Layer 1">
    <g>
      <path class="cls-1" d="m18.35,1.09l-1.23,1.08s-1.77,2.8-1.71,2.88-.11,2.45.17,2.77,3.48,6.56,3.48,6.56l1.74,1.45,1-.09s2.42-2.2,2.54-2.28,2.88-6.19,2.88-6.45-.66-3.54-.71-3.65-2.62-2.31-2.62-2.31l-3.99-.51-1.54.54Z"/>
      <ellipse class="cls-2" cx="21.33" cy="6.43" rx="3.83" ry="3.65"/>
      <path class="cls-3" d="m20.77,4.86c.23.09,1.4.11,1.4.11l.91.6-.09,1.17s-1.74,1.26-1.83,1.23-1.57-1.28-1.57-1.28v-1.28l1.17-.54Z"/>
      <g id="viAJlF.tif">
        <g>
          <path class="cls-4" d="m14.49,29.01c-4.6,0-9.2,0-13.81,0-.56,0-.68-.12-.68-.68,0-5.6,0-11.2,0-16.8,0-.54.13-.66.67-.66,5.04,0,10.07,0,15.11,0,.08,0,.15,0,.23,0,.3,0,.31-.01.18-.27-.35-.69-.63-1.41-.87-2.15-.59-1.76-.52-3.49.4-5.11C16.9,1.22,18.74.09,21.18,0c3.11-.11,6.07,2.24,6.45,5.71.1.94-.06,1.86-.36,2.75-.23.69-.49,1.36-.81,2.02-.18.37-.18.38.25.38.58,0,1.15,0,1.73,0,.41,0,.57.16.57.56,0,5.68,0,11.35,0,17.03,0,.41-.17.56-.63.56-4.63,0-9.26,0-13.89,0Zm-5.71-17.2c.05.19.16.28.25.39.63.8,1.27,1.59,1.9,2.39.21.26.2.52,0,.71-.14.13-.3.13-.47.13-3,0-6,0-9,0-.08,0-.15,0-.23,0-.21-.02-.33.05-.3.28,0,.06,0,.13,0,.2q0,.39.39.39c3.52,0,7.04,0,10.55,0,.29,0,.49.1.67.33.7.89,1.41,1.77,2.12,2.65.8,1,1.6,2,2.4,3.01.23.29.2.59-.05.77-.14.1-.31.08-.46.08-5.04,0-10.07,0-15.11,0-.57,0-.5-.07-.52.51-.01.3.09.36.37.36,1.79-.01,3.58,0,5.38,0,.44,0,.6.15.6.59,0,.98,0,1.96,0,2.94,0,.61-.08.52.55.54.25,0,.33-.07.32-.32-.01-1.02,0-2.04,0-3.05,0-.59.11-.7.71-.7,6.24,0,12.49,0,18.73,0,.08,0,.17,0,.25,0,.15,0,.23-.05.22-.21,0-.08,0-.17,0-.25q0-.4-.4-.4c-2.64,0-5.28,0-7.92,0-.34,0-.6-.09-.79-.38-.16-.23-.35-.44-.53-.66-1.31-1.63-2.62-3.27-3.93-4.9-.15-.19-.25-.38-.14-.62.11-.24.33-.28.57-.27,1.2,0,2.4,0,3.59,0,.33,0,.52.18.53.46,0,.3-.19.48-.53.49-.52,0-1.04,0-1.56,0-.37,0-.75,0-1.12,0-.01.1.04.13.07.17,1.22,1.53,2.45,3.06,3.67,4.6.12.15.25.17.42.17,2.57,0,5.15,0,7.72,0,.26,0,.34-.07.34-.33-.01-1.42-.01-2.85,0-4.27,0-.28-.09-.35-.36-.34-1.21.01-2.41,0-3.62,0-.25,0-.45-.08-.53-.33-.11-.33.13-.62.52-.62,1.14,0,2.28,0,3.42,0,.63,0,.55.1.57-.58,0-.23-.08-.29-.29-.29-.77.01-1.55,0-2.32,0-.35,0-.55-.17-.56-.46,0-.31.2-.48.56-.48.77,0,1.55,0,2.32,0,.2,0,.29-.05.29-.27-.01-.72,0-1.43,0-2.15,0-.2-.07-.27-.26-.26-.58,0-1.15.01-1.73,0-.23,0-.36.08-.47.27-.44.77-.94,1.5-1.51,2.19-.6.72-1.22,1.41-2.06,1.87-.51.28-1,.27-1.51,0-.57-.31-1.04-.74-1.48-1.21-.81-.86-1.48-1.83-2.08-2.85-.08-.14-.16-.26-.36-.25-1.63,0-3.26,0-4.89,0-.06,0-.15-.03-.18.03-.05.08.04.13.09.19.59.75,1.19,1.48,1.78,2.24.13.17.27.22.48.22,1.08,0,2.15,0,3.23,0,.39,0,.6.17.6.48,0,.3-.21.46-.58.46-1.22,0-2.43,0-3.65,0-.26,0-.44-.09-.6-.29-.83-1.04-1.66-2.08-2.49-3.11-.08-.1-.15-.22-.31-.22-.41,0-.83,0-1.28,0Zm9.81,13.12c-3.04,0-6.07,0-9.11,0q-.38,0-.38.39c0,.78,0,1.57,0,2.35q0,.39.38.39c3.01,0,6.02,0,9.03,0,1.56,0,3.11,0,4.67,0q.37,0,.37-.38c0-.45,0-.91,0-1.36,0-.35.17-.52.52-.53.57,0,1.13,0,1.7,0,.37,0,.53.17.54.54,0,.48,0,.96,0,1.44,0,.2.06.29.27.28.41-.01.81-.01,1.22,0,.23,0,.29-.08.29-.3,0-.82,0-1.64,0-2.46q0-.37-.37-.38c-3.04,0-6.07,0-9.11,0Zm-2.7-18.55c.02.19.03.43.07.66.05.3.11.59.19.88.76,2.47,2.05,4.64,3.8,6.55.23.25.48.48.77.67.47.31.73.3,1.19-.01.24-.16.47-.35.67-.57,1.77-1.87,3.05-4.04,3.84-6.49.27-.82.37-1.67.23-2.54-.44-2.8-2.97-4.8-5.82-4.56-2.51.21-4.88,2.29-4.94,5.41Zm-7.55,15.79c2.36,0,4.71,0,7.07,0,.09,0,.22.05.27-.04.06-.1-.07-.16-.12-.23-1.19-1.49-2.38-2.97-3.56-4.46-.13-.16-.26-.21-.46-.21-3.42,0-6.84,0-10.26,0-.27,0-.33.09-.33.34.01,1.4,0,2.81,0,4.21q0,.39.38.39c2.34,0,4.68,0,7.01,0Zm1.25-7.69c-.05-.08-.06-.11-.09-.14-.64-.8-1.27-1.59-1.9-2.39-.1-.13-.22-.15-.37-.15-2,0-4,0-6,0-.22,0-.3.07-.29.29.01.68.02,1.36,0,2.04,0,.3.1.36.37.36,2.66,0,5.32,0,7.98,0,.08,0,.17,0,.3,0Zm-5.96,13.58c.8,0,1.6,0,2.4,0,.24,0,.31-.08.31-.31-.01-.84-.01-1.68,0-2.52,0-.23-.06-.31-.3-.31-1.6,0-3.21,0-4.81,0-.22,0-.29.07-.29.29,0,.85.01,1.7,0,2.55,0,.25.09.3.32.3.79-.01,1.58,0,2.38,0Zm20.86-.66c0,.14,0,.28,0,.42,0,.17.05.25.23.24.15,0,.3,0,.45,0,.13,0,.19-.06.19-.19,0-.31,0-.62,0-.93,0-.13-.05-.18-.18-.2-.65-.08-.68-.05-.68.6,0,.02,0,.04,0,.06Z"/>
          <path class="cls-4" d="m21.31,1.81c2.54,0,4.54,2.02,4.54,4.58,0,2.51-2.04,4.5-4.57,4.52-2.46.02-4.57-2.09-4.53-4.6.04-2.49,2.05-4.5,4.57-4.5Zm0,.95c-1.95,0-3.61,1.62-3.6,3.58,0,2,1.56,3.58,3.59,3.62,1.96.03,3.61-1.65,3.61-3.6,0-1.95-1.64-3.59-3.59-3.59Z"/>
          <path class="cls-4" d="m4.57,19.74c0,.35,0,.7,0,1.04,0,.35-.17.53-.52.53-.57,0-1.15,0-1.72,0-.35,0-.51-.18-.51-.53,0-.72,0-1.43,0-2.15,0-.37.17-.53.54-.53.56,0,1.11,0,1.67,0,.38,0,.54.17.54.56,0,.36,0,.72,0,1.07Zm-.95,0c-.02-.78.13-.67-.6-.68-.19,0-.28.05-.27.26.01.26.01.53,0,.79-.01.21.07.28.28.28.69-.02.58.07.59-.58,0-.02,0-.04,0-.06Z"/>
          <path class="cls-4" d="m5.43,19.69c0-.36,0-.72,0-1.07,0-.33.17-.51.51-.51.58,0,1.17,0,1.75,0,.32,0,.49.17.5.49,0,.74,0,1.49,0,2.23,0,.3-.18.48-.48.48-.59,0-1.19,0-1.78,0-.32,0-.49-.17-.5-.49,0-.38,0-.75,0-1.13Zm1.81.04c0-.74,0-.73-.66-.68-.14.01-.2.06-.2.21,0,.3,0,.6,0,.9,0,.14.05.2.2.21.66.06.67.06.67-.59,0-.02,0-.04,0-.06Z"/>
          <path class="cls-4" d="m11.81,19.71c0,.36,0,.72,0,1.07,0,.35-.17.52-.52.53-.57,0-1.15,0-1.72,0-.34,0-.51-.17-.51-.5,0-.73,0-1.47,0-2.2,0-.33.18-.5.52-.5.57,0,1.15,0,1.72,0,.35,0,.51.18.51.53,0,.36,0,.72,0,1.07Zm-.95,0c0-.14,0-.28,0-.42,0-.17-.05-.25-.23-.24-.15,0-.3,0-.45,0-.13,0-.19.06-.19.19,0,.31,0,.62,0,.93,0,.13.05.18.18.2.65.08.68.05.68-.6,0-.02,0-.04,0-.06Z"/>
          <path class="cls-4" d="m23.58,6.02c0,.52-.21.95-.57,1.31-.43.43-.97.68-1.55.83-.09.02-.19.03-.28,0-.75-.19-1.42-.52-1.87-1.17-.65-.95-.24-2.16.82-2.43.3-.08.6-.07.89.04.2.07.37.06.57,0,1.04-.33,2,.36,2,1.42Zm-3.08-.54c-.33,0-.57.3-.52.61.08.47.42.72.8.92.68.36,1.7-.16,1.83-.93.06-.35-.25-.66-.6-.59-.13.02-.26.07-.37.14-.24.15-.47.15-.71,0-.14-.09-.29-.12-.44-.15Z"/>
        </g>
      </g>
    </g>
  </g>
</svg>