<?xml version="1.0" encoding="UTF-8"?>
<svg id="Layer_2" data-name="Layer 2" xmlns="http://www.w3.org/2000/svg" viewBox="0 0 34.22 28.93">
  <defs>
    <style>
      .cls-1 {
        fill: #8e9284;
      }

      .cls-2 {
        fill: #a0a9cc;
      }

      .cls-3 {
        fill: #414042;
      }
    </style>
  </defs>
  <g id="Layer_1-2" data-name="Layer 1">
    <g>
      <path class="cls-1" d="m12.39.5h9.81v16.8l-3.38,3.66-6.57.09.14-20.55Z"/>
      <path class="cls-2" d="m16.2,3.41l.99.52,1.36-.61,1.08.56.23,1.27-.56,1.5-1.55,1.03s-.89.05-1.03-.05-2.21-2.49-2.21-2.49l.56-1.45,1.13-.28Z"/>
      <g>
        <path class="cls-3" d="m34.22,26.01c-.16.26-.37.39-.67.29-.31-.1-.35-.36-.35-.65,0-3.63,0-7.27,0-10.9,0-.47,0-.47-.48-.47-.37,0-.73.03-1.1-.05-1.02-.24-1.7-1.07-1.7-2.12,0-1.63-.06-3.27.01-4.9.11-2.49,1.32-4.35,3.45-5.61.34-.2.59-.08.83.17v24.24Zm-1.02-22.91c-.09.03-.12.03-.15.05-1.13.96-1.84,2.16-2,3.63-.18,1.74-.06,3.48-.07,5.23,0,.74.47,1.16,1.21,1.16.19,0,.38,0,.57,0q.43,0,.44-.45c0-3.08,0-6.17,0-9.25v-.37Z"/>
        <path class="cls-3" d="m12.86,10.8c0,3.1,0,6.2,0,9.3,0,.45,0,.45.44.45,1.45,0,2.89,0,4.34,0,.3,0,.41-.08.4-.4-.02-.88,0-1.77,0-2.65,0-.48.21-.7.69-.7.83,0,1.67,0,2.5,0q.48,0,.48-.48c0-3.8,0-7.61,0-11.41,0-.14,0-.29.02-.43.06-.28.25-.43.52-.43.28,0,.48.16.54.45,0,.04.02.09,0,.13-.14.62.21.88.7,1.17,3.31,1.98,5.31,4.91,5.96,8.72,1.12,6.6-3.39,13.02-9.93,14.2-5.72,1.03-11.36-1.93-13.57-7.32-2-4.88-1.16-9.37,2.31-13.35.9-1.04,2-1.84,3.21-2.49.21-.11.28-.24.28-.47,0-1.44,0-2.89,0-4.33,0-.6.16-.76.75-.76,3.19,0,6.39,0,9.58,0,.55,0,.72.17.72.72,0,.37,0,.74,0,1.11,0,.38-.21.61-.52.62-.33,0-.55-.22-.58-.61,0-.01,0-.02,0-.03q-.04-.75-.8-.75c-2.54,0-5.07,0-7.61,0q-.43,0-.44.45c0,3.1,0,6.2,0,9.3Zm9.95-.29c0,.22,0,.34,0,.46,0,2.06,0,4.12,0,6.18,0,.3-.09.53-.3.75-1.14,1.13-2.27,2.27-3.4,3.42-.2.21-.42.3-.71.29-1.94,0-3.87,0-5.81,0-.7,0-.84-.13-.84-.84,0-3.26,0-6.51,0-9.77,0-.13.03-.27-.03-.39-.09-.02-.13.05-.17.09-1.52,1.53-2.33,3.39-2.42,5.55-.07,1.53.3,2.97,1.04,4.31.21.37.13.66-.18.83-.3.16-.57.06-.77-.3-.96-1.76-1.37-3.64-1.12-5.63.32-2.52,1.46-4.6,3.43-6.2.16-.13.23-.28.22-.49,0-.57,0-1.14,0-1.71,0-.11.05-.25-.06-.31-.11-.06-.2.06-.29.12-4.04,2.46-6.13,7.34-5.13,12,1.35,6.27,7.52,10.22,13.76,8.63,6.67-1.69,10.26-8.91,7.65-15.31-.92-2.27-2.45-4.03-4.51-5.33-.09-.06-.19-.17-.3-.12-.13.06-.07.22-.07.34,0,.55,0,1.1,0,1.64,0,.25.08.41.28.56,3.04,2.44,4.24,6.65,2.95,10.28-1.71,4.8-6.67,7.32-11.53,5.83-1.2-.37-2.27-.98-3.22-1.79-.17-.15-.28-.32-.21-.56.06-.22.2-.37.44-.41.25-.05.42.09.6.23,2.06,1.66,4.4,2.23,6.95,1.66,5.35-1.2,7.99-7.16,5.36-11.99-.4-.74-.91-1.4-1.61-2.03Zm-1.96,7.4c-.47,0-.96,0-1.45,0-.15,0-.26.03-.26.22,0,.51,0,1.02,0,1.51.57-.58,1.14-1.15,1.72-1.72Z"/>
        <path class="cls-3" d="m2.01,19.15c0-2.16,0-4.32,0-6.48,0-.29-.07-.43-.36-.53C.64,11.78,0,10.84,0,9.77,0,7.23,0,4.69,0,2.15c0-.28.05-.51.36-.6.39-.11.69.12.69.57,0,1.58,0,3.16,0,4.73,0,.28,0,.56,0,.84-.01.23.07.34.3.32.08,0,.16,0,.23,0,.28.03.37-.09.36-.36,0-1.61,0-3.22,0-4.83,0-.25,0-.49,0-.74.02-.34.23-.56.54-.57.29,0,.5.19.54.52.02.12.01.25.01.37,0,1.73,0,3.47,0,5.2,0,.41,0,.39.52.41.31.01.46-.04.46-.41-.02-1.81-.01-3.63,0-5.44,0-.49.31-.74.72-.61.26.09.36.29.37.54.01.21,0,.43,0,.64,0,2.22,0,4.43,0,6.65,0,1.34-.5,2.34-1.82,2.81-.14.05-.19.14-.19.28,0,.11,0,.22,0,.34,0,4.16,0,8.33,0,12.49,0,.21,0,.43-.05.63-.07.28-.27.41-.54.4-.28-.01-.45-.18-.49-.46-.02-.11,0-.22,0-.34,0-2.13,0-4.25,0-6.38Zm.52-10.04c-.31,0-.62,0-.93,0-.59,0-.59,0-.54.6.09,1.1,1.01,1.76,1.97,1.42.72-.26,1.16-1.1.98-1.86-.04-.17-.16-.16-.28-.17-.4,0-.8,0-1.2,0Z"/>
        <path class="cls-3" d="m20.35,4.79c-.02,1.12-.6,1.87-1.36,2.52-.42.37-.9.65-1.41.89-.22.1-.42.12-.64.02-.86-.41-1.65-.93-2.23-1.71-.54-.74-.74-1.55-.43-2.43.42-1.18,1.71-1.61,2.75-.93.11.07.19.16.35.05.63-.46,1.3-.52,1.97-.13.68.39.97,1.02.99,1.73Zm-1.1.08c0-.46-.22-.84-.57-.92-.37-.1-.66.04-.89.42-.34.56-.75.55-1.1-.03-.21-.34-.45-.47-.8-.4-.35.06-.54.31-.61.63-.12.52.06.97.38,1.37.38.47.85.82,1.37,1.1.15.08.29.09.44,0,.48-.27.92-.59,1.28-1,.29-.34.51-.71.5-1.17Z"/>
        <path class="cls-3" d="m17.28,11.72c-.7,0-1.4,0-2.1,0-.45,0-.69-.2-.68-.55,0-.35.24-.55.69-.55,1.41,0,2.82,0,4.23,0,.43,0,.66.19.67.54,0,.36-.22.56-.67.57-.71,0-1.42,0-2.13,0Z"/>
        <path class="cls-3" d="m17.29,13.24c.72,0,1.44,0,2.17,0,.39,0,.61.19.63.51.02.37-.21.59-.64.6-1.03,0-2.07,0-3.1,0-.41,0-.82,0-1.23,0-.39-.01-.62-.22-.61-.56,0-.33.23-.54.62-.54.72,0,1.44,0,2.17,0Z"/>
      </g>
    </g>
  </g>
</svg>