<?xml version="1.0" encoding="UTF-8"?>
<svg id="Layer_2" data-name="Layer 2" xmlns="http://www.w3.org/2000/svg" viewBox="0 0 32.21 30.86">
  <defs>
    <style>
      .cls-1 {
        fill: #787f70;
      }

      .cls-2 {
        fill: #a0a9cc;
      }

      .cls-3 {
        fill: #414042;
      }
    </style>
  </defs>
  <g id="Layer_1-2" data-name="Layer 1">
    <g>
      <circle class="cls-1" cx="13.61" cy="17.26" r="5.21"/>
      <path class="cls-2" d="m13.02,15.88l1.64-.38s.7-1.08,1.22,0l.52,1.08-.23,1.5-2.44,2.02-2.86-2.35-.14-2.02,1.22-.42,1.08.56Z"/>
      <g>
        <path class="cls-3" d="m9.83,1.51c0,.72-.34,1.27-.84,1.75-.32.31-.69.55-1.1.73-.24.11-.5.15-.74.05-.87-.36-1.58-.9-1.94-1.8-.13-.33-.19-.66-.13-1.02.18-1.02,1.22-1.53,2.12-1.03.18.1.31.1.49,0,1.05-.56,2.13.12,2.13,1.32Zm-1.11.09c0-.2.02-.37-.16-.46-.18-.09-.32-.01-.47.09-.52.36-.79.37-1.26.03-.17-.12-.34-.24-.54-.09-.19.14-.17.35-.12.55.1.39.37.66.67.9.53.42.66.42,1.2,0,.34-.28.64-.59.68-1.01Z"/>
        <path class="cls-3" d="m32.21,22.14c0,.72-.34,1.27-.84,1.75-.32.31-.69.55-1.1.73-.24.11-.5.15-.74.05-.87-.36-1.58-.9-1.94-1.8-.13-.33-.19-.66-.13-1.02.18-1.02,1.22-1.53,2.12-1.03.18.1.31.1.49,0,1.05-.56,2.13.12,2.13,1.32Zm-1.11.09c0-.2.02-.37-.16-.46-.18-.09-.32-.01-.47.09-.52.36-.79.37-1.26.03-.17-.12-.34-.24-.54-.09-.19.14-.17.35-.12.55.1.39.37.66.67.9.53.42.66.42,1.2,0,.34-.28.64-.59.68-1.01Z"/>
        <path class="cls-3" d="m2.72,5.31c0,.85,0,1.63,0,2.41,0,.67-.44,1.19-1.1,1.33-.69.14-1.41-.31-1.58-.99-.17-.7.24-1.43.91-1.64.08-.02.17-.06.25-.06.4.04.43-.2.42-.51-.02-.41,0-.82,0-1.24,0-.38.14-.69.5-.85.37-.17.66.02.91.26.33.31.62.65,1.07.81.25.09.33.35.24.62-.1.27-.3.4-.59.37-.37-.04-.66-.25-1.02-.52Z"/>
        <path class="cls-3" d="m26.95,27.07c0,.85,0,1.63,0,2.41,0,.7-.47,1.23-1.18,1.36-.6.11-1.24-.3-1.46-.92-.31-.86.3-1.74,1.27-1.8.23-.01.29-.08.28-.29-.01-.49-.01-.97,0-1.46.02-.57.38-.93.86-.87.22.03.39.15.55.29.33.31.6.67,1.07.81.25.08.34.41.24.65-.11.26-.32.39-.61.35-.37-.05-.66-.26-1-.53Z"/>
        <path class="cls-3" d="m19.34,17.27c0,3.22-2.57,5.79-5.77,5.79-3.2,0-5.81-2.59-5.81-5.77,0-3.19,2.63-5.81,5.82-5.81,3.17,0,5.76,2.61,5.76,5.79Zm-1.1,0c0-2.61-2.06-4.68-4.66-4.69-2.62,0-4.71,2.07-4.72,4.67,0,2.62,2.06,4.67,4.68,4.71,2.53.04,4.75-2.11,4.69-4.69Z"/>
        <path class="cls-3" d="m13.81,27.3c-4.92,0-9.04-3.32-10.03-7.85-.02-.09-.03-.19-.04-.28,0-.3.17-.53.44-.57.25-.04.53.13.61.4.12.4.2.82.35,1.22,1.26,3.34,3.67,5.28,7.17,5.89.97.17,1.96.11,2.93-.07.37-.07.67.11.72.43.05.31-.15.57-.52.64-.63.12-1.27.19-1.63.19Z"/>
        <path class="cls-3" d="m6.53,11.98c0,.83,0,1.58,0,2.34,0,.8-.56,1.4-1.31,1.43-.72.02-1.37-.58-1.39-1.28-.03-.8.52-1.43,1.34-1.45.25,0,.28-.1.27-.3,0-.41,0-.82,0-1.23,0-.17.01-.34.05-.5.11-.51.66-.74,1.11-.48.18.11.33.27.47.42.22.23.45.43.76.54.29.1.41.39.32.67-.08.26-.36.41-.66.36-.36-.06-.63-.28-.97-.5Z"/>
        <path class="cls-3" d="m13.53,8.34c-.54.02-1.07.07-1.6.17-.41.08-.71-.1-.75-.43-.05-.32.13-.55.51-.64.65-.15,1.32-.19,1.98-.18,1.43.02,2.81.32,4.11.93.31.15.62.31.92.49.33.19.41.5.25.78-.16.28-.47.35-.8.15-1.04-.61-2.16-1.02-3.36-1.18-.42-.06-.84-.11-1.26-.1Z"/>
        <path class="cls-3" d="m20.59,24.18c-.19-.02-.36-.09-.47-.27-.11-.2-.12-.41.02-.6.16-.21.34-.41.5-.62.88-1.14,1.44-2.42,1.7-3.84.04-.23.1-.43.33-.54.2-.09.39-.07.57.06.19.14.24.34.2.56-.27,1.53-.85,2.93-1.76,4.19-.2.28-.43.55-.65.82-.11.14-.26.21-.44.23Z"/>
        <path class="cls-3" d="m16.94,16.85c-.03,1.09-.61,1.9-1.41,2.6-.4.35-.85.62-1.33.86-.43.21-.84.21-1.28,0-.96-.48-1.79-1.09-2.33-2.03-.33-.58-.48-1.2-.38-1.88.21-1.5,1.99-2.05,3.05-1.21.23.18.36.17.59,0,.65-.5,1.37-.52,2.09-.17.74.36.99,1.02.99,1.83Zm-1.11,0c0-.58-.18-.86-.6-.94-.34-.07-.61.06-.87.27-.6.48-.95.47-1.56.01-.06-.04-.12-.09-.18-.13-.28-.21-.59-.22-.9-.08-.32.14-.42.43-.43.76-.02.45.14.85.4,1.21.44.62,1.03,1.05,1.7,1.39.13.06.24.05.36,0,.63-.3,1.18-.71,1.61-1.26.29-.36.48-.77.47-1.21Z"/>
        <path class="cls-3" d="m18.6,3.69c1.63,0,3.26,0,4.88,0,.25,0,.4-.06.52-.31.22-.46.64-.64,1.12-.65.74-.02,1.48-.02,2.22,0,.8.02,1.26.52,1.26,1.32,0,.71,0,1.42,0,2.12,0,.83-.48,1.31-1.32,1.32-.06,0-.13,0-.19,0-.25-.03-.33.08-.33.33,0,1.2-.05,2.4-.45,3.53-.18.51-.12.92.04,1.41,1.62,5,.73,9.54-2.7,13.52-1.96,2.28-4.48,3.7-7.42,4.26-4.24.81-8.06-.17-11.38-2.93-2.45-2.04-4.01-4.65-4.59-7.79-.78-4.27.22-8.1,3.04-11.41,2.14-2.51,4.87-4,8.12-4.56.84-.14,1.68-.17,2.52-.18,1.55-.02,3.11,0,4.66,0Zm7.42,14.15c.01-1.85-.2-3.13-.59-4.37-.07-.23-.13-.3-.35-.11-.44.4-.95.68-1.52.82-.29.07-.37.21-.37.51,0,.65-.46,1.08-1.11,1.09-.22,0-.44,0-.67,0-.91,0-1.62-.58-1.81-1.47-.18-.85.24-1.69,1.04-2.06.43-.2.88-.19,1.34-.18.62.01.99.27,1.18.86.07.21.15.2.32.14.42-.17.78-.4,1.1-.73.21-.21.25-.39.1-.67-.73-1.4-1.66-2.65-2.86-3.69-3.33-2.86-7.15-3.82-11.4-2.76C4.79,6.63.83,11.92,1.11,17.8c.09,1.88.56,3.64,1.43,5.3,2.52,4.76,7.8,7.37,13.11,6.46,5.99-1.02,10.36-6.2,10.37-11.73Zm1.47-12.7c0-.34,0-.68,0-1.01,0-.2-.07-.29-.28-.28-.65,0-1.31,0-1.96,0-.2,0-.29.06-.29.27,0,.68,0,1.35,0,2.03,0,.18.07.27.26.27.66,0,1.33,0,1.99,0,.21,0,.28-.09.27-.29,0-.33,0-.65,0-.98Zm-5.62,1.43c1.45,1.17,2.6,2.48,3.49,4.02.09-.07.09-.15.1-.22.15-.8.2-1.61.2-2.43,0-.42,0-.42-.42-.42-.59,0-1.05-.2-1.3-.77-.05-.12-.13-.18-.26-.18-.57,0-1.14,0-1.81,0Zm-2.88-1.72c.27.13.55.24.8.39.27.17.55.23.87.22.95-.01,1.9-.01,2.85,0,.26,0,.38-.05.38-.35,0-.29-.14-.32-.37-.32-1.43,0-2.87,0-4.3,0-.07,0-.15-.04-.22.04Zm3.11,9.1q0-.84-.72-.78c-.44.04-.75.41-.7.85.05.48.47.74,1.17.69.48-.04.17-.42.26-.64.01-.04,0-.08,0-.13Z"/>
      </g>
    </g>
  </g>
</svg>