<?xml version="1.0" encoding="UTF-8"?>
<svg id="Layer_2" data-name="Layer 2" xmlns="http://www.w3.org/2000/svg" viewBox="0 0 36.17 25.58">
  <defs>
    <style>
      .cls-1 {
        fill: #a0a9cc;
      }

      .cls-2 {
        fill: #414042;
      }
    </style>
  </defs>
  <g id="Layer_1-2" data-name="Layer 1">
    <g>
      <path class="cls-1" d="m18.1,4.01c.38-.11,1.23-.7,1.66-.64s1.55.27,1.88.43,1.07,1.13,1.07,1.13v2.57l-3,3.43-1.55.8-2.95-1.82s-2.04-2.25-1.98-3.54,1.29-2.52,1.29-2.52l1.45-.43,2.14.59Z"/>
      <g id="pbRjwt.tif">
        <g>
          <path class="cls-2" d="m20.53,18.47c0-.11,0-.21,0-.32,0-.4-.23-.55-.6-.41-.13.05-.26.11-.39.15-.3.09-.58-.04-.7-.31-.12-.27-.03-.61.26-.71.4-.14.42-.36.38-.74-.24-2.26,2.05-3.18,3.58-2.54.11.04.22.09.32.15.19.12.24,0,.29-.15.12-.44.3-.87.52-1.27.65-1.18,1.6-2.05,2.82-2.62.27-.13.52-.15.75.07.26.26.21.67-.12.87-.21.13-.44.23-.65.35-1.33.81-2.08,2.01-2.37,3.51-.03.16.3.75.45.8.12.04.14-.06.17-.13.16-.29.31-.58.48-.86,1.11-1.93,2.8-2.95,5-3.16.64-.06,1.32-.9,1.24-1.53-.02-.21-.15-.14-.25-.11-.52.14-1.04.28-1.56.42-.14.04-.27.08-.41.11-.33.06-.6-.12-.67-.42-.07-.29.07-.56.39-.66.58-.18,1.18-.33,1.77-.49.31-.08.61-.17.92-.24.46-.11.73.03.84.5.18.73.16,1.45-.19,2.13-.14.27-.06.36.22.36.79,0,1.58,0,2.36.02.64.01.83.2.81.83-.05,1.09-.55,1.93-1.51,2.46-.24.14-.3.27-.29.55.05,1.22-.47,2.32-1.82,2.95-.38.18-.66.36-.82.78-.22.55-.72.88-1.23,1.17-.08.05-.24.06-.19.2.04.11.14.19.27.2.19.01.38.02.56,0,.79-.07,1.57-.05,2.36-.05.74,0,1.27.54,1.26,1.28-.02,1.23-.36,2.36-1.12,3.35-.56.72-1.16.82-1.94.35-.91-.56-1.83-1.11-2.74-1.67-.21-.13-.38-.15-.62-.05-3.55,1.43-7.33-.82-7.78-4.61-.02-.16-.02-.33-.02-.49,0,0,0,0,0,0Zm1.15-.2c0,.3,0,.61.06.93.46,2.35,2.53,3.89,4.91,3.65,1.09-.11,2.02-.58,2.79-1.38.09-.09.24-.18.14-.36-.11-.19-.93-.55-1.15-.51-.56.1-1.12.14-1.68.17-.43.02-.7-.21-.71-.56,0-.34.24-.56.65-.59.37-.03.75-.04,1.12-.08.86-.1,1.7-.26,2.43-.75.31-.21.56-.48.58-.88.02-.34.19-.53.51-.63.24-.07.47-.15.69-.26.99-.47,1.37-1.28,1.13-2.35-.14-.59-.04-.76.55-.96.53-.18.93-.49,1.16-1,.12-.25.05-.33-.22-.33-1.21-.01-2.42-.07-3.63-.06-1.87.01-3.28.86-4.26,2.44-.22.35-.4.72-.6,1.08-.74,1.35-1.48,2.7-2.21,4.05-.02.04-.05.08-.07.12-.21.34-.51.45-.8.3-.31-.16-.39-.49-.19-.85.48-.88.96-1.75,1.44-2.63.09-.16.15-.3.03-.49-.34-.53-.72-1.01-1.22-1.41-.4-.32-.85-.43-1.35-.37-.62.08-1.05.43-1.19.99-.13.54.1,1.13.62,1.41.4.22.52.51.46.92-.02.12-.01.23-.02.37Zm11.92,3.66c0-.45-.01-.46-.46-.46-.69,0-1.39.01-2.08.02-.12,0-.27-.04-.34.11-.2.41-.52.72-.85,1.02-.1.09-.11.17.01.25.83.51,1.66,1.03,2.5,1.51.29.16.37-.17.48-.33.14-.2-.09-.23-.2-.28-.37-.18-.75-.34-1.12-.51-.4-.18-.54-.48-.4-.81.14-.31.44-.4.84-.23.39.16.78.33,1.16.52.2.1.31.07.34-.15.04-.22.07-.44.11-.66Z"/>
          <path class="cls-2" d="m3.82,20.31c.44.02.98.04,1.52.07.1,0,.21,0,.31-.02.1-.02.2-.1.23-.2.03-.12-.1-.14-.18-.18-.65-.35-1.18-.81-1.42-1.54-.06-.18-.23-.22-.38-.28-1.02-.43-1.77-1.1-2.02-2.22-.07-.3-.14-.6-.07-.91.05-.24-.04-.36-.24-.47C.55,13.99.02,13.13,0,11.97c-.01-.52.19-.73.72-.74.79-.02,1.58-.01,2.36-.02.44,0,.45-.03.27-.43-.3-.66-.32-1.34-.15-2.03.12-.49.39-.64.86-.51,1.43.38,2.87.74,4.28,1.17,2.06.62,3.43,1.99,4.1,4.03.11.32.17.4.51.23,1.51-.74,3.31.06,3.7,1.61.08.31.1.64.03.94-.08.35,0,.52.34.63.26.09.39.31.36.58-.03.27-.21.44-.48.5-.13.03-.26-.02-.38-.06-.8-.29-.86-.24-.88.62-.03,1.37-.5,2.57-1.39,3.61-.27.32-.6.37-.87.15-.25-.21-.26-.56,0-.87.84-1,1.21-2.14,1.08-3.43-.04-.45.07-.75.49-.98.51-.28.72-.87.59-1.39-.13-.55-.55-.9-1.15-.99-.53-.08-1,.04-1.42.38-.48.39-.85.87-1.19,1.39-.12.19-.06.33.03.49.48.87.96,1.75,1.44,2.63.2.36.12.69-.19.85-.29.15-.59.04-.8-.3-.02-.04-.05-.08-.07-.12-.74-1.35-1.47-2.7-2.21-4.05-.42-.77-.8-1.57-1.47-2.18-.93-.85-2.02-1.33-3.28-1.33-1.25,0-2.49.04-3.74.06-.27,0-.33.08-.21.33.24.53.66.84,1.2,1.01.55.18.65.37.52.91-.26,1.11.15,1.94,1.19,2.41.21.1.44.17.66.24.3.1.47.28.48.61,0,.39.25.65.55.86.75.52,1.62.68,2.5.78.37.04.75.05,1.12.08.39.03.63.25.62.58,0,.34-.26.58-.67.56-.57-.02-1.15-.07-1.72-.16-.23-.04-1.03.32-1.15.51-.09.14.01.22.09.31.79.84,1.75,1.34,2.9,1.44.65.06,1.29-.02,1.91-.22.43-.14.72-.02.84.32.12.33-.06.6-.49.76-1.36.47-2.7.42-4.02-.13-.23-.09-.39-.08-.58.05-.92.57-1.85,1.13-2.77,1.69-.76.46-1.36.36-1.91-.34-.78-.99-1.12-2.13-1.14-3.38-.01-.74.53-1.26,1.27-1.27.34,0,.68,0,1.12,0Zm7.75-5.67c0-.07-.01-.1-.02-.13-.35-1.8-1.31-3.15-3.03-3.83-1.32-.53-2.73-.77-4.1-1.17-.11-.03-.2-.04-.22.13-.07.64.61,1.47,1.25,1.53,2.29.21,4,1.31,5.1,3.34.12.23.25.45.37.68.04.06.09.2.17.12.19-.2.41-.39.47-.65Zm-7.54,6.83c-.18,0-.35,0-.51,0-1.07-.01-1.09,0-.86,1.07,0,.01,0,.02,0,.03.03.21.12.27.34.17.39-.19.79-.37,1.19-.53.4-.16.71-.06.83.25.13.32-.01.61-.39.79-.39.18-.79.36-1.19.54-.08.04-.19.06-.19.18,0,.26.4.49.63.35.76-.46,1.52-.93,2.29-1.38.21-.13.24-.22.04-.38-.34-.29-.54-.76-.87-.99-.34-.25-.89-.04-1.32-.09Z"/>
          <path class="cls-2" d="m13.94,6.09c0,.65.17,1.12.39,1.58.08.17.17.34.12.54-.06.23-.2.38-.42.43-.24.06-.45-.03-.58-.24-1.62-2.62-.02-5.36,2.31-5.6.77-.08,1.47.13,2.09.57.17.12.28.13.46,0,2.03-1.43,4.61-.1,5.01,2.25.18,1.06-.15,2-.67,2.89-.97,1.68-2.42,2.82-4.16,3.62-.26.12-.52.14-.78.02-1-.44-1.9-1.02-2.71-1.76-.23-.21-.32-.47-.15-.76.16-.26.4-.32.67-.22.14.05.26.16.37.26.58.52,1.23.95,1.93,1.29.13.06.25.13.4.05,1.73-.86,3.13-2.04,3.83-3.9.41-1.1.05-2.27-.84-2.85-.86-.56-1.87-.42-2.62.36-.36.37-.67.41-.99.04-.65-.75-1.62-.89-2.33-.58-.82.35-1.34,1.18-1.34,2.01Z"/>
          <path class="cls-2" d="m11.65,4.63c-.28-.04-.6-.1-.9-.23-.28-.12-.41-.35-.33-.66.07-.29.35-.47.65-.41.29.06.57.13.85.22.29.1.42.34.35.64-.07.29-.27.43-.61.42Z"/>
          <path class="cls-2" d="m24.52,4.63c-.34,0-.54-.13-.61-.43-.07-.31.06-.54.35-.64.29-.1.58-.18.88-.23.3-.05.52.11.61.41.08.29-.05.52-.3.64-.31.15-.64.2-.93.24Z"/>
          <path class="cls-2" d="m13.76.69c0-.39.13-.6.41-.67.3-.08.55.05.65.33.11.29.19.6.23.91.04.28-.12.51-.4.58-.29.08-.55-.02-.66-.31-.12-.3-.17-.63-.23-.85Z"/>
          <path class="cls-2" d="m22.41.7c-.06.22-.12.54-.23.83-.11.29-.36.4-.66.32-.3-.08-.45-.31-.41-.61.04-.3.12-.6.22-.88.1-.28.34-.42.64-.35.3.07.44.29.42.68Z"/>
          <path class="cls-2" d="m12.29,1.35c.16,0,.3.05.4.15.2.19.41.39.59.6.21.25.19.54-.03.76-.2.2-.53.22-.77.02-.21-.18-.41-.39-.6-.6-.16-.18-.18-.41-.07-.62.1-.19.27-.29.46-.31Z"/>
          <path class="cls-2" d="m24.4,1.91c0,.15-.04.28-.14.39-.19.19-.37.39-.57.57-.24.21-.56.2-.77,0-.23-.22-.26-.52-.03-.79.19-.22.4-.43.63-.62.17-.15.38-.17.59-.05.19.11.29.27.29.49Z"/>
          <path class="cls-2" d="m14.12,16.22c-.3,0-.56-.24-.57-.54,0-.3.23-.56.54-.58.3-.01.55.24.56.55,0,.32-.22.56-.53.57Z"/>
          <path class="cls-2" d="m22.62,15.66c0,.31-.24.56-.55.57-.31,0-.55-.24-.55-.55,0-.31.24-.57.54-.57.3,0,.56.25.56.56Z"/>
        </g>
      </g>
    </g>
  </g>
</svg>