<?xml version="1.0" encoding="UTF-8"?>
<svg id="Layer_2" data-name="Layer 2" xmlns="http://www.w3.org/2000/svg" viewBox="0 0 31.34 31.32">
  <defs>
    <style>
      .cls-1 {
        fill: #a0a9cc;
      }

      .cls-2 {
        fill: #414042;
      }
    </style>
  </defs>
  <g id="Layer_1-2" data-name="Layer 1">
    <g>
      <path class="cls-1" d="m15,18.42c.12.07,1.9-.19,2.02-.19s2.64.67,2.67.77.34,1.99.34,1.99c0,0-.65,2.26-.74,2.33s-3.19,1.71-3.39,1.71-3.84-2.02-3.94-2.11-.62-3.46-.62-3.46l1.73-1.18,1.95.14Z"/>
      <g id="_8s4yGo.tif" data-name="8s4yGo.tif">
        <g>
          <path class="cls-2" d="m15.68,31.32c-4.52,0-9.04,0-13.56,0-1.3,0-2.11-.81-2.11-2.12C0,22.98.01,16.76,0,10.54c0-.39.13-.64.45-.86.89-.61,1.76-1.25,2.65-1.86.24-.17.34-.34.34-.65-.01-2.16,0-4.32,0-6.47C3.43.14,3.57,0,4.13,0,11.82,0,19.51,0,27.2,0c.58,0,.72.14.72.72,0,2.18,0,4.36,0,6.53,0,.23.07.37.26.51.94.65,1.86,1.32,2.79,1.97.27.19.38.4.38.74,0,6.28,0,12.56,0,18.84,0,1.16-.85,2.01-2,2.01-4.55,0-9.1,0-13.65,0Zm0-30.3c-3.6,0-7.21,0-10.81,0q-.41,0-.41.42c0,4.08.01,8.16-.01,12.25,0,.52.15.82.57,1.11,1.97,1.36,3.91,2.76,5.86,4.14.12.09.23.21.37,0,.84-1.31,2.49-1.73,4.02-.98.31.15.54.14.84,0,1.48-.72,3.07-.36,3.94.9.16.24.26.22.47.07,2.02-1.44,4.05-2.88,6.08-4.31.23-.16.31-.33.31-.6,0-4.18,0-8.37,0-12.55q0-.44-.43-.44c-3.59,0-7.19,0-10.78,0Zm13.46,29.26s-.03-.05-.04-.06c-3.14-2.23-6.27-4.45-9.41-6.69-.18-.13-.28-.08-.41.06-.95.93-2.11,1.48-3.37,1.82-.14.04-.28.05-.42,0-1.24-.34-2.4-.86-3.33-1.77-.22-.22-.36-.22-.61-.04-2.33,1.66-4.66,3.31-6.99,4.97-.78.55-1.55,1.1-2.38,1.69h26.98ZM1.03,13.24c0,.18,0,.28,0,.38,0,5.16,0,10.32,0,15.47,0,.08,0,.16,0,.24,0,.11,0,.25.1.31.12.08.2-.06.29-.12,3.21-2.27,6.41-4.54,9.61-6.81.16-.11.21-.2.12-.4-.28-.58-.43-1.19-.38-1.83.02-.26-.08-.4-.29-.55-2.34-1.65-4.67-3.31-7-4.96-.8-.56-1.59-1.13-2.45-1.74Zm29.29.02c-.11.06-.16.09-.21.12-3.1,2.2-6.21,4.4-9.31,6.6-.16.11-.23.23-.22.43.04.63-.07,1.24-.35,1.81-.12.25-.08.38.15.54,3.11,2.19,6.21,4.4,9.32,6.6.16.11.33.36.5.27.19-.1.12-.39.12-.6,0-5.13,0-10.25,0-15.38,0-.11,0-.22,0-.39Zm-10.76,7.01c0-.66-.68-1.45-1.61-1.61-.69-.11-1.29.1-1.84.48-.3.21-.57.22-.86,0-.28-.21-.6-.34-.94-.43-1.2-.32-2.3.37-2.48,1.59-.13.88.18,1.64.75,2.3.78.91,1.82,1.41,2.94,1.76.12.04.24.02.36-.01.82-.26,1.59-.62,2.27-1.16.84-.67,1.38-1.51,1.4-2.92ZM3.43,11.27c0-.7,0-1.4,0-2.11,0-.08.04-.18-.06-.21-.05-.01-.13.05-.19.08-.42.3-.82.65-1.28.89-.75.38-1.03.94-.88,1.74,0,.02,0,.04,0,.06-.02.16.05.27.18.36.67.47,1.33.94,1.99,1.41.05.04.11.11.19.07.08-.04.04-.13.04-.2,0-.7,0-1.4,0-2.11Zm24.48-.04c0,.69,0,1.38,0,2.08,0,.01,0,.02,0,.03.01.08-.04.18.04.23.1.06.16-.05.24-.1.41-.29.79-.63,1.23-.85.77-.39,1.04-.97.91-1.8-.03-.17-.06-.3-.21-.4-.65-.45-1.29-.92-1.94-1.38-.06-.04-.13-.14-.21-.08-.08.05-.04.15-.04.23,0,.68,0,1.36,0,2.04Z"/>
          <path class="cls-2" d="m20.09,6.39c0,2.13-2.18,3.55-4.13,2.7-.2-.09-.36-.09-.57,0-1.16.47-2.25.32-3.18-.53-.89-.81-1.18-1.84-.84-3,.35-1.2,1.19-1.89,2.41-2.11.56-.1,1.12-.02,1.64.23.18.09.33.09.51,0,1.98-.88,4.17.54,4.17,2.71Zm-5.92-1.94c-.11.02-.26.03-.4.06-1.01.21-1.64,1.21-1.44,2.27.19.97,1.18,1.65,2.16,1.49.25-.04.28-.1.14-.32-.59-.97-.62-1.98-.1-2.99.24-.46.22-.5-.31-.51-.01,0-.02,0-.06,0Zm2.99,2.01c0,.53-.1.89-.48,1.54-.09.16-.09.23.11.26.23.04.46.04.69,0,1.06-.19,1.73-1.17,1.53-2.26-.18-1.01-1.18-1.69-2.2-1.51-.23.04-.24.11-.12.29.31.48.48,1.01.47,1.68Zm-1.96-.07c.04.35.12.69.31,1,.13.2.21.17.32-.01.39-.66.39-1.32,0-1.99-.11-.19-.2-.23-.33-.01-.19.31-.27.65-.31,1.01Z"/>
          <path class="cls-2" d="m15.66,12.26c-2.08,0-4.15,0-6.23,0-.4,0-.62-.18-.62-.51,0-.26.17-.47.43-.51.1-.01.2,0,.3,0,4.08,0,8.16,0,12.24,0,.09,0,.18,0,.27,0,.28.03.47.23.47.5,0,.27-.18.48-.46.51-.14.01-.28,0-.43,0-1.99,0-3.99,0-5.98,0Z"/>
          <path class="cls-2" d="m15.67,14.21c-2.09,0-4.17,0-6.26,0-.37,0-.58-.17-.6-.46-.02-.29.16-.52.45-.55.09-.01.18,0,.27,0,4.09,0,8.18,0,12.27,0,.1,0,.21,0,.3,0,.26.05.41.21.42.48.01.26-.16.48-.42.52-.1.02-.2,0-.3,0-2.05,0-4.09,0-6.14,0Z"/>
          <path class="cls-2" d="m15.65,16.17c-2.01,0-4.03,0-6.04,0-.09,0-.18,0-.27,0-.32-.02-.52-.22-.52-.52,0-.28.2-.48.5-.5.06,0,.12,0,.18,0,4.11,0,8.22,0,12.33,0,.08,0,.16,0,.24,0,.28.03.46.24.46.51,0,.26-.18.46-.44.5-.1.01-.2,0-.3,0-2.05,0-4.09,0-6.14,0Z"/>
          <path class="cls-2" d="m6.41,7.21c0,.66,0,1.32,0,1.98,0,.4-.19.62-.51.62-.33,0-.51-.22-.51-.62,0-1.56,0-3.11,0-4.67,0-.41.14-.56.55-.62.84-.11,1.29-.56,1.4-1.4.06-.41.2-.55.62-.55.59,0,1.18,0,1.77,0,.38,0,.59.19.59.51,0,.32-.21.51-.59.51-.39,0-.77,0-1.16,0-.17,0-.26.05-.31.22-.27.82-.82,1.37-1.64,1.64-.19.06-.22.17-.21.34,0,.68,0,1.36,0,2.05Z"/>
          <path class="cls-2" d="m25.96,6.89c0,.77,0,1.55,0,2.32,0,.4-.19.61-.52.61-.31,0-.5-.22-.5-.6,0-1.33,0-2.67,0-4,0-.23-.06-.34-.29-.41-.77-.26-1.29-.79-1.55-1.57-.07-.2-.16-.27-.37-.26-.39.02-.77,0-1.16,0-.33,0-.53-.2-.54-.49,0-.31.2-.52.54-.52.62,0,1.24,0,1.86,0,.36,0,.52.15.57.5.12.91.54,1.33,1.45,1.45.35.05.5.21.5.57,0,.8,0,1.61,0,2.41Z"/>
        </g>
      </g>
    </g>
  </g>
</svg>