<?xml version="1.0" encoding="UTF-8"?>
<svg id="Layer_2" data-name="Layer 2" xmlns="http://www.w3.org/2000/svg" viewBox="0 0 24.69 30.16">
  <defs>
    <style>
      .cls-1 {
        fill: #8e9284;
      }

      .cls-2 {
        fill: #a0a9cc;
      }

      .cls-3 {
        fill: #414042;
      }
    </style>
  </defs>
  <g id="Layer_1-2" data-name="Layer 1">
    <g>
      <polygon class="cls-1" points="24.09 9.19 24.16 14.51 22.99 16.34 15.11 16.51 13.6 17.46 11.94 16.44 9.69 15.88 9.59 8.63 10.85 7.4 22.89 7.65 24.09 9.19"/>
      <polygon class="cls-2" points="13.56 13.38 15.25 12.29 15.22 10.85 14.2 10.29 13.21 10.43 11.87 10.5 11.45 11.31 12.89 13.42 13.56 13.38"/>
      <g>
        <path class="cls-3" d="m15.61,0c1,.22,1.89.65,2.59,1.42.77.84,1.19,1.83,1.2,2.98,0,.41,0,.82,0,1.24,0,.32-.16.5-.45.51-.3,0-.47-.17-.48-.51-.01-.49,0-.98-.04-1.47-.15-1.71-1.53-3.08-3.24-3.22-.38-.03-.76-.04-1.14-.04-3.07,0-6.14,0-9.21,0-.63,0-1.25.08-1.83.37-1.3.67-1.98,1.75-2.03,3.2-.04,1.12,0,2.24,0,3.35,0,.35-.16.53-.44.54-.25,0-.41-.1-.48-.35-.02-.08-.04-.15-.04-.23.02-1.22-.05-2.45.04-3.67C.18,2.23,1.58.57,3.44.1c.13-.03.26-.07.4-.1,3.92,0,7.85,0,11.77,0Z"/>
        <path class="cls-3" d="m.97,17.83c0,2.58,0,5.16,0,7.74,0,1.77,1.17,3.21,2.9,3.58.29.06.58.09.88.09,3.3,0,6.59,0,9.89,0,1.57,0,2.76-.65,3.48-2.08.28-.56.35-1.16.36-1.77,0-2.29,0-4.59,0-6.88,0-.11,0-.22,0-.32.04-.25.21-.38.45-.38.24,0,.41.12.46.38.02.1,0,.2,0,.29,0,2.41,0,4.83,0,7.24,0,2.45-2.01,4.46-4.45,4.46-3.49,0-6.98,0-10.47,0-2.29,0-4.26-1.86-4.42-4.14-.03-.38-.03-.76-.03-1.15,0-4.9,0-9.81,0-14.71,0-.17-.01-.33.05-.5.08-.23.25-.35.5-.32.25.03.38.18.42.42.01.1,0,.2,0,.29,0,2.59,0,5.18,0,7.77Z"/>
        <path class="cls-3" d="m16.79,6.98c1.75,0,3.49.05,5.24-.02,1.23-.05,2.57.8,2.58,2.51,0,.71,0,1.41,0,2.12,0,.07,0,.14-.02.2-.05.32-.23.47-.51.46-.27-.02-.43-.21-.43-.53,0-.77,0-1.53,0-2.3,0-.37-.1-.72-.35-1.01-.24-.28-.54-.45-.91-.48-.1,0-.2-.01-.29-.01-3.55,0-7.1,0-10.65,0-.88,0-1.38.55-1.5,1.1-.02.12-.04.25-.04.38,0,1.7,0,3.39,0,5.09,0,.9.59,1.48,1.49,1.49.04,0,.08,0,.12,0,.78-.12,1.43.1,1.89.76.1.15.22.16.32,0,.48-.7,1.15-.8,1.95-.79,2.14.05,4.28,0,6.41.03.88.01,1.59-.62,1.55-1.57,0-.26-.01-.53,0-.79.01-.25.16-.4.41-.42.24-.02.42.08.5.32.4,1.16-.25,2.69-1.36,3.21-.34.16-.71.22-1.09.22-2.3,0-4.61,0-6.91,0-.23,0-.41.06-.57.24-.14.16-.3.31-.46.46-.37.35-.87.4-1.18.02-.49-.61-1.07-.74-1.82-.73-1.24,0-2.23-1.06-2.24-2.35-.02-1.76-.03-3.51,0-5.27.02-1.37,1.06-2.35,2.43-2.35,1.8,0,3.61,0,5.41,0Z"/>
        <path class="cls-3" d="m12.11,25.51c-.6,0-1.15-.14-1.67-.43-.2-.11-.34-.1-.54,0-2.31,1.27-5.18-.45-5.14-3.09,0-.45.09-.9.29-1.31.12-.25.05-.32-.19-.34-.2-.02-.41-.06-.61-.09-.28-.04-.47-.18-.5-.48-.03-.34-.07-.68-.1-1.02-.02-.21.09-.38.25-.5.6-.47,1.21-.94,1.81-1.4.15-.11.31-.16.5-.09.32.11.65.21.97.34.29.11.4.31.36.63-.03.23-.05.47-.08.7-.02.16,0,.21.18.18.83-.14,1.62,0,2.35.42.18.11.31.03.46-.05,1.55-.81,3.37-.44,4.41.93.85,1.12.98,2.36.38,3.63-.62,1.3-1.71,1.91-3.12,1.98Zm-3.86-.97c.17-.01.33-.01.5-.04.14-.02.28-.08.42-.12.19-.06.24-.14.11-.33-.9-1.35-.88-2.72.01-4.06.12-.18.06-.24-.1-.29-.43-.15-.86-.24-1.32-.15-1.36.24-2.25,1.37-2.14,2.75.1,1.26,1.2,2.24,2.52,2.25Zm3.78,0c1.65.01,2.81-1.35,2.56-2.93-.25-1.58-1.99-2.55-3.44-1.92-.16.07-.21.12-.09.29.91,1.36.91,2.73,0,4.09-.11.17-.05.24.11.3.3.12.6.18.86.17Zm-2.42-2.52c-.03.51.13.98.41,1.42.11.17.18.2.31.02.57-.76.57-2.08,0-2.85-.12-.16-.2-.18-.32,0-.27.42-.43.88-.41,1.41Zm-3.08-3.82c0-.15.05-.3-.14-.38-.17-.07-.31-.06-.45.06-.38.31-.77.6-1.16.9-.14.11-.16.22-.12.38.04.17.14.22.29.24.23.03.46.07.69.11.21.03.8-.38.83-.59.03-.24.05-.48.07-.72Z"/>
        <path class="cls-3" d="m2.74,12.76c0,2.69,0,5.37,0,8.06,0,.11,0,.22,0,.32-.04.24-.18.39-.43.41-.25.02-.42-.1-.48-.34-.03-.13-.04-.27-.04-.41,0-5.35,0-10.71,0-16.06,0-1.57.87-2.69,2.29-2.96.52-.1,1.06-.02,1.59-.04.24,0,.47,0,.71,0,.31,0,.57.09.74.34.39.54.9.72,1.55.69.8-.04,1.61-.02,2.41,0,.47,0,.85-.15,1.12-.53.27-.37.62-.53,1.09-.5.57.03,1.14,0,1.71,0,1.41.01,2.63,1.23,2.65,2.63,0,.42,0,.84,0,1.27,0,.3-.16.48-.43.49-.27.02-.45-.13-.5-.43-.06-.36-.02-.72-.03-1.09-.02-1.21-.71-1.91-1.93-1.92-.47,0-.94,0-1.41,0-.19,0-.34.06-.46.21-.47.58-1.08.84-1.83.83-.92-.02-1.84,0-2.77,0-.68,0-1.24-.26-1.67-.77-.15-.18-.32-.26-.55-.26-.48.01-.96,0-1.44,0-1.12.02-1.87.78-1.87,1.91,0,2.72,0,5.43,0,8.15Z"/>
        <path class="cls-3" d="m9.7,28.39c-1.74,0-3.47,0-5.21,0-1.41,0-2.58-1.12-2.68-2.53-.07-.9-.02-1.8-.03-2.71,0-.06,0-.12.02-.18.05-.32.22-.48.5-.46.27.02.44.2.44.52,0,.84,0,1.69,0,2.53,0,.5.15.94.51,1.31.33.34.72.55,1.2.55.54,0,1.08,0,1.62,0,2.87,0,5.75,0,8.62,0,.46,0,.9-.06,1.28-.35.49-.38.72-.88.71-1.51,0-1.01,0-2.02,0-3.03,0-1.29,0-2.59,0-3.88,0-.17,0-.33.04-.5.04-.24.26-.4.49-.37.24.03.39.17.42.42.01.09,0,.18,0,.26,0,2.37,0,4.75,0,7.12,0,1.62-1.19,2.8-2.81,2.8-1.71,0-3.41,0-5.12,0Z"/>
        <path class="cls-3" d="m12.72,9.92c.42.24.94.05,1.48.01.65-.05,1.22.35,1.46.94.25.62.14,1.28-.35,1.73-.43.4-.89.76-1.36,1.12-.36.27-.76.27-1.12,0-.46-.35-.91-.72-1.33-1.11-.49-.45-.61-1.12-.35-1.73.25-.58.81-.95,1.58-.95Zm-.1.94c-.29.04-.5.15-.6.42-.09.26-.02.49.18.67.35.3.71.59,1.06.88.09.08.17.08.26,0,.37-.3.76-.59,1.11-.92.36-.34.21-.87-.25-1.03-.21-.07-.39,0-.55.12-.29.23-.56.23-.85-.01-.11-.09-.24-.13-.36-.14Z"/>
        <path class="cls-3" d="m19.65,12.38c-.8,0-1.61,0-2.41,0-.39,0-.61-.26-.52-.6.07-.28.29-.35.54-.36.4-.01.8,0,1.21,0,1.14,0,2.27,0,3.41,0,.12,0,.24,0,.35.02.29.06.43.24.4.52-.02.25-.2.42-.48.42-.52,0-1.04,0-1.56,0-.31,0-.63,0-.94,0Z"/>
        <path class="cls-3" d="m19.67,13.52c.77,0,1.55,0,2.32,0,.12,0,.23,0,.35.05.19.09.29.22.29.44,0,.21-.1.35-.29.44-.1.05-.21.05-.32.05-1.58,0-3.16,0-4.73,0-.16,0-.31-.03-.44-.14-.16-.14-.19-.33-.13-.51.08-.23.27-.32.51-.32.81,0,1.63,0,2.44,0h0Z"/>
        <path class="cls-3" d="m19.68,9.34c.79,0,1.59,0,2.38,0,.37,0,.56.15.57.45,0,.3-.16.48-.53.5-.64.02-1.27.01-1.91.01-.88,0-1.76,0-2.64,0-.13,0-.26,0-.38-.02-.32-.04-.48-.21-.46-.49.01-.28.18-.44.51-.44.82,0,1.64,0,2.47,0Z"/>
      </g>
    </g>
  </g>
</svg>