<?xml version="1.0" encoding="UTF-8"?>
<svg id="Layer_2" data-name="Layer 2" xmlns="http://www.w3.org/2000/svg" viewBox="0 0 30.1 23.97">
  <defs>
    <style>
      .cls-1 {
        fill: #8e9284;
      }

      .cls-2 {
        fill: #a0a9cc;
      }

      .cls-3 {
        fill: #414042;
      }
    </style>
  </defs>
  <g id="Layer_1-2" data-name="Layer 1">
    <g>
      <circle class="cls-1" cx="18.07" cy="13.77" r="5.69"/>
      <path class="cls-2" d="m18.29,16.49l2.46-2.32-.04-2.01-1.34-.6s.42.42-1.09.28l-1.51-.14-1.23.84-.11,1.02.92,1.3,1.94,1.62Z"/>
      <g>
        <path class="cls-3" d="m30.1,22.08c-.27.91-.82,1.55-1.76,1.79-.27.07-.54.09-.81.09-8.31,0-16.61,0-24.92,0-1.34,0-2.29-.7-2.56-1.89-.04-.19-.04-.39-.04-.58C.01,16.19.03,10.89,0,5.59c0-1.12.75-2.33,2.18-2.47.25-.02.32-.11.3-.34-.02-.3,0-.61,0-.91,0-.41.15-.58.55-.61.31-.03.63-.02.94-.02.82,0,1.64,0,2.47,0,.6,0,.77.18.77.77,0,.28,0,.57,0,.85,0,.17.07.24.24.24,1.24,0,2.49,0,3.73,0,.18,0,.26-.1.34-.23.5-.83,1-1.66,1.49-2.49C13.16.11,13.38,0,13.68,0,16.66,0,19.65,0,22.63,0c.32,0,.55.12.71.41.47.81.97,1.61,1.44,2.42.12.21.26.28.49.27.72-.01,1.45,0,2.17,0,1.42,0,2.2.55,2.65,1.89v17.09Zm-12.42.86c3.34,0,6.67,0,10.01,0,.86,0,1.45-.58,1.45-1.43,0-5.32,0-10.65,0-15.97,0-.85-.57-1.42-1.42-1.42-.94,0-1.88-.01-2.82,0-.35,0-.59-.12-.77-.43-.47-.81-.97-1.61-1.44-2.42-.11-.19-.24-.27-.47-.27-2.71,0-5.42,0-8.13,0-.23,0-.35.08-.46.27-.44.75-.91,1.48-1.33,2.25-.24.44-.54.61-1.05.61-2.95-.02-5.91-.01-8.86,0-.79,0-1.38.55-1.39,1.33-.02,1.4,0,2.8,0,4.2,0,.2.08.28.28.28.35,0,.7,0,1.06.02.35.03.55.23.54.5-.01.3-.23.48-.59.48-.34,0-.69,0-1.03,0-.19,0-.26.07-.26.26,0,.3.01.61,0,.91,0,.22.09.29.29.29.35,0,.71,0,1.06.02.33.02.54.25.52.52-.02.29-.23.46-.57.47-.35,0-.7,0-1.06,0-.18,0-.24.07-.24.24,0,.3.01.61,0,.91-.01.24.09.3.31.3.35,0,.71,0,1.06.02.32.03.51.25.5.51-.01.28-.23.48-.56.48-.33,0-.67.02-1,0-.25-.01-.33.09-.31.32.02.26.02.53,0,.79-.02.25.07.36.33.34.33-.02.67-.01,1,0,.33.02.55.24.54.51,0,.29-.24.49-.58.5-.34,0-.69,0-1.03,0-.18,0-.26.06-.26.25,0,1.01,0,2.02,0,3.02.01.7.58,1.31,1.25,1.32,1.23.02,2.47,0,3.7.01.18,0,.25-.08.24-.25,0-.1,0-.2,0-.29,0-5.51,0-11.02,0-16.53,0-.11,0-.22,0-.32.02-.35.21-.57.5-.58.3,0,.5.22.52.59,0,.11,0,.22,0,.32,0,5.53,0,11.06,0,16.59q0,.47.48.47c3.33,0,6.65,0,9.98,0ZM4.81,3.1c.28,0,.57,0,.85,0,.57,0,.52.07.53-.54,0-.25-.09-.32-.33-.31-.61.01-1.23,0-1.84,0-.61,0-.55-.1-.56.57,0,.22.08.29.29.28.35-.01.7,0,1.05,0Z"/>
        <path class="cls-3" d="m9.92,13.65c.03-3.88,2.89-7.27,6.9-7.94,4.08-.68,8.01,1.76,9.24,5.74.07.24.17.37.43.44.91.25,1.47,1.04,1.46,2.02,0,.9-.6,1.67-1.5,1.91-.2.05-.31.14-.37.35-1.1,3.33-3.38,5.35-6.84,5.85-4.33.63-8.4-2.36-9.18-6.7-.09-.49-.12-.99-.13-1.66Zm15.47.22c.07-3.82-3.06-7.2-7.09-7.27-4.03-.07-7.33,3.13-7.39,7.13-.06,4.17,3.36,7.35,7.22,7.36,3.98.01,7.3-3.28,7.26-7.22Zm1.57-.03c-.03-.33-.15-.62-.42-.83-.04-.03-.1-.09-.15-.06-.05.04-.03.11-.02.16.07.48.07.97,0,1.45,0,.05-.04.13.04.15.04,0,.09-.02.13-.05.27-.21.4-.49.43-.83Z"/>
        <path class="cls-3" d="m18.17,1.87c1.11,0,2.23,0,3.34,0,.44,0,.56.08.72.49.13.34.27.67.4,1.01.12.33.01.59-.27.71-.26.11-.51-.01-.65-.33-.1-.21-.18-.43-.26-.65-.05-.15-.15-.21-.31-.21-1.98,0-3.97,0-5.95,0-.16,0-.25.07-.31.21-.09.23-.17.46-.28.68-.14.29-.38.4-.64.29-.28-.11-.39-.37-.27-.68.14-.37.29-.73.43-1.09.11-.3.32-.44.65-.44,1.13,0,2.27,0,3.4,0Z"/>
        <path class="cls-3" d="m26.85,7.83c-.79,0-1.45-.66-1.43-1.44.01-.79.65-1.41,1.43-1.41.79,0,1.45.66,1.44,1.44-.01.78-.66,1.41-1.44,1.42Zm.41-1.42c0-.24-.15-.4-.39-.41-.24,0-.44.17-.44.4,0,.22.18.4.4.41.25,0,.43-.16.44-.4Z"/>
        <path class="cls-3" d="m9.5,6.21c.28,0,.57,0,.85,0,.34,0,.55.19.56.47.02.28-.18.51-.51.53-.61.02-1.23.02-1.84,0-.32-.01-.5-.24-.49-.51.01-.29.22-.47.55-.48.29,0,.59,0,.88,0Z"/>
        <path class="cls-3" d="m24.54,13.84c.07,3.42-2.82,6.4-6.39,6.4-3.26,0-6.35-2.61-6.38-6.4-.02-3.5,2.89-6.4,6.39-6.38,3.68.01,6.43,3.05,6.37,6.39Zm-6.37-5.37c-2.91-.06-5.37,2.39-5.39,5.35-.02,2.66,2.08,5.39,5.38,5.4,3.04,0,5.39-2.39,5.39-5.39,0-3.18-2.64-5.42-5.38-5.36Z"/>
        <path class="cls-3" d="m14.87,13.26c0-1.65,1.61-2.67,3.04-2.02.19.09.33.09.51,0,.92-.44,2.02-.15,2.61.68.6.84.55,1.96-.16,2.7-.76.79-1.54,1.56-2.32,2.33-.26.25-.54.26-.8,0-.77-.76-1.54-1.53-2.3-2.31-.39-.4-.57-.9-.58-1.37Zm2.2-1.21c-.56,0-.91.23-1.09.67-.18.44-.13.87.21,1.23.6.62,1.22,1.22,1.82,1.83.13.14.22.1.33-.02.58-.59,1.17-1.16,1.74-1.75.48-.5.49-1.14.06-1.61-.42-.45-1.05-.48-1.58-.07-.31.24-.49.24-.78,0-.23-.19-.48-.3-.7-.28Z"/>
      </g>
    </g>
  </g>
</svg>