<?xml version="1.0" encoding="UTF-8"?>
<svg id="Layer_2" data-name="Layer 2" xmlns="http://www.w3.org/2000/svg" viewBox="0 0 25.06 37.61">
  <defs>
    <style>
      .cls-1 {
        fill: #8e9284;
      }

      .cls-2 {
        fill: #a0a9cc;
      }

      .cls-3 {
        fill: #414042;
      }
    </style>
  </defs>
  <g id="Layer_1-2" data-name="Layer 1">
    <g>
      <path class="cls-2" d="m9.9,4.12c-.1,0-1.51.29-1.67,1.65s1.18,3.36,2.56,4.36,1.53.91,1.53.91c0,0,2.5-1.71,2.95-2.44s1.55-2.33,1.2-2.91-1.22-1.94-2.5-1.45-1.63,1.2-1.63,1.2c0,0-.95-1.44-2.44-1.32Z"/>
      <path class="cls-3" d="m10.33,3.61c.78,0,1.44.3,1.94.9.13.16.19.14.31,0,.66-.79,1.52-1.06,2.51-.82.99.24,1.63.87,1.85,1.89.12.58.05,1.13-.21,1.66-.46.94-1.15,1.69-1.89,2.4-.62.59-1.28,1.14-1.99,1.62-.38.25-.47.26-.84,0-1.3-.91-2.5-1.93-3.44-3.23-.45-.63-.77-1.32-.71-2.13.02-.3.09-.58.22-.85.1-.2.31-.28.51-.2.2.08.32.29.24.49-.31.82-.06,1.53.4,2.21.55.83,1.28,1.49,2.04,2.11.33.27.67.51,1,.77.11.08.2.09.32,0,1.09-.79,2.1-1.65,2.91-2.73.32-.42.6-.88.66-1.42.11-.92-.49-1.72-1.37-1.84-1.09-.14-1.85.48-1.95,1.57-.03.28-.18.45-.41.45-.24,0-.42-.16-.41-.44.03-.98-1.14-1.98-2.31-1.5-.2.08-.38.05-.52-.12-.11-.14-.11-.29-.02-.45.06-.1.15-.15.25-.2.25-.11.54-.16.91-.17Z"/>
      <polygon class="cls-1" points="3.52 22.46 10.85 22.2 10.08 24.19 8.4 26.84 6.77 27.45 4.89 27.19 3.26 24.9 3.52 22.46"/>
      <polygon class="cls-1" points="14.36 20.73 21.94 21.08 21.79 23.83 21.08 26.07 19.96 27.24 18.02 27.55 15.12 25.21 14.16 22.36 14.36 20.73"/>
      <g id="VWaiRS.tif">
        <g>
          <path class="cls-3" d="m22.4,21.92c0,1.66-.21,3.04-.89,4.31-.37.68-.85,1.26-1.56,1.62-.13.07-.15.15-.13.28.37,1.88.74,3.77,1.1,5.65.04.22.17.22.34.19.67-.13,1.33-.27,2-.4.68-.13,1.25.1,1.56.61.34.57.3,1.3-.1,1.78-.22.27-.52.41-.86.48-1.95.38-3.91.77-5.86,1.14-.83.16-1.5-.35-1.66-1.21-.15-.79.33-1.51,1.14-1.67.68-.14,1.37-.27,2.05-.39.24-.04.31-.13.26-.37-.37-1.84-.73-3.68-1.08-5.52-.04-.18-.1-.27-.31-.29-.92-.1-1.67-.57-2.32-1.21-1.21-1.19-1.93-2.66-2.41-4.26-.44-1.48-.63-3.01-.73-4.55-.07-.99-.05-1.97-.04-2.96,0-.6.06-1.19.15-1.78.06-.35.2-.51.55-.58,1.32-.26,2.65-.52,3.97-.77.36-.07.73-.15,1.09-.21.41-.07.6.02.8.39.61,1.12,1.13,2.29,1.57,3.49.54,1.47.97,2.98,1.22,4.53.1.64.17,1.29.15,1.71Zm-4.74-1.73c1.03,0,2.06,0,3.1,0,.21,0,.33-.04.28-.29-.47-2.34-1.27-4.56-2.33-6.7-.08-.16-.19-.2-.35-.17-.27.06-.55.11-.83.16-1.03.2-2.06.4-3.09.6-.14.03-.3.03-.32.26-.07.77-.09,1.54-.09,2.3,0,1.18.06,2.37.23,3.54.04.24.13.29.35.29,1.01,0,2.03,0,3.04,0Zm.22,1.16c-1.03,0-2.06,0-3.1,0-.16,0-.26,0-.21.22.35,1.4.86,2.73,1.74,3.89.41.54.89,1.03,1.51,1.34.78.38,1.53.25,2.14-.37.28-.29.49-.62.66-.99.56-1.24.64-2.55.6-3.88,0-.2-.13-.2-.27-.2-1.02,0-2.05,0-3.07,0Zm.02,15.08s.06,0,.12-.02c1.39-.27,2.79-.54,4.18-.81.49-.1.97-.19,1.46-.29.25-.05.26-.22.21-.41-.04-.19-.16-.24-.35-.2-1.92.38-3.85.75-5.78,1.12-.21.04-.29.16-.26.37.03.21.15.27.41.25Z"/>
          <path class="cls-3" d="m12.11,16.28c0,1.98-.17,3.95-.66,5.87-.44,1.72-1.16,3.3-2.39,4.61-.69.74-1.5,1.28-2.55,1.38-.19.02-.2.15-.23.28-.29,1.57-.58,3.13-.87,4.7-.05.27-.09.54-.16.8-.06.24,0,.35.26.39.69.11,1.37.25,2.05.39.69.14,1.15.67,1.16,1.32.02.79-.41,1.39-1.09,1.56-.29.07-.58.02-.86-.04-1.86-.36-3.71-.72-5.57-1.09-.71-.14-1.17-.62-1.21-1.25-.05-.77.31-1.38.95-1.6.28-.1.57-.08.86-.03.65.13,1.3.25,1.94.39.24.05.34,0,.38-.26.33-1.82.67-3.63,1.01-5.45.04-.22,0-.35-.22-.47-.91-.49-1.42-1.33-1.78-2.26-.57-1.47-.67-3-.5-4.55.35-3.13,1.41-6.04,2.88-8.8.19-.36.38-.46.78-.38,1.7.33,3.4.66,5.09.99.35.07.5.25.54.62.12.95.17,1.91.16,2.87Zm-5.05,5.53c.98,0,1.96,0,2.93,0,.28,0,.4-.08.45-.36.23-1.13.38-2.26.45-3.41.08-1.31.06-2.62-.03-3.93-.01-.18-.09-.28-.27-.31-1.32-.25-2.65-.51-3.97-.77-.17-.03-.26.02-.34.17-.56,1.11-1.05,2.25-1.44,3.43-.53,1.59-.98,3.2-1.08,4.89-.01.26.07.3.3.3,1-.01,1.99,0,2.99,0Zm-.16,1.17c-.85,0-1.7,0-2.55,0-.55,0-.57,0-.5.54.12.94.36,1.83.93,2.61.37.5.82.86,1.49.87.57,0,1.04-.23,1.46-.56,1.07-.85,1.69-2.01,2.2-3.24.08-.21-.03-.2-.18-.2-.95,0-1.9,0-2.85,0Zm.26,13.46c.29.03.39-.06.41-.27.03-.24-.1-.32-.3-.36-1.9-.37-3.8-.74-5.7-1.1-.29-.06-.42.07-.4.37.02.23.2.23.35.27,1.29.26,2.59.51,3.89.76.61.12,1.22.23,1.75.34Z"/>
          <path class="cls-3" d="m19.95,18.35c0,.33-.15.54-.44.61-.28.07-.54-.06-.65-.36-.13-.36-.22-.73-.34-1.09-.1-.32-.22-.63-.32-.95-.1-.34.05-.64.36-.74.3-.1.6.05.72.37.26.66.45,1.34.64,2.02.02.06.02.13.02.15Z"/>
          <path class="cls-3" d="m18.48,14.34c0,.32-.26.58-.57.57-.31,0-.56-.27-.56-.59,0-.3.26-.55.56-.56.31,0,.57.26.57.57Z"/>
          <path class="cls-3" d="m10.32,16.57c.01.71,0,1.41-.1,2.11-.05.37-.29.58-.61.56-.32-.02-.54-.27-.52-.64.07-1.06.07-2.11.06-3.17,0-.08.02-.16.04-.24.06-.27.28-.45.54-.45.26,0,.48.16.55.43.03.1.04.21.04.32,0,.36,0,.72,0,1.09Z"/>
          <path class="cls-3" d="m9.34,21.4c-.32,0-.58-.27-.57-.57,0-.31.27-.56.59-.55.3,0,.55.26.55.56,0,.31-.26.57-.58.56Z"/>
        </g>
      </g>
      <path class="cls-3" d="m12.95,1.44c0,.29,0,.58,0,.87,0,.33-.22.56-.53.59-.29.02-.57-.19-.6-.51-.06-.63-.06-1.27,0-1.9.03-.32.28-.5.58-.49.29.01.52.23.53.55.01.3,0,.6,0,.9,0,0,0,0,0,0Z"/>
      <path class="cls-3" d="m15.48.79c-.26.48-.49,1.08-.98,1.5-.19.16-.43.09-.62-.07-.19-.16-.26-.39-.16-.61.21-.47.48-.91.8-1.32.15-.2.38-.23.62-.13.2.09.36.32.35.62Z"/>
      <path class="cls-3" d="m9.98.12c.19.02.36.11.48.29.22.35.44.7.65,1.06.18.33.09.65-.2.82-.28.16-.59.07-.79-.24-.22-.35-.44-.7-.64-1.07-.22-.41.05-.86.5-.86Z"/>
    </g>
  </g>
</svg>