<?xml version="1.0" encoding="UTF-8"?>
<svg id="Layer_2" data-name="Layer 2" xmlns="http://www.w3.org/2000/svg" viewBox="0 0 22.2 28">
  <defs>
    <style>
      .cls-1 {
        fill: #414042;
      }
    </style>
  </defs>
  <g id="Layer_1-2" data-name="Layer 1">
    <g>
      <path class="cls-1" d="m18.89,16.4c.08-1.41.11-2.81.12-4.22,0-.22-.06-.38-.23-.52-.2-.16-.38-.34-.55-.53-.12-.13-.2-.15-.32,0-.24.32-.51.62-.77.92-.33.39-.72.7-1.24.78-.15.02-.18.08-.09.21,2.27,3.49,3.83,7.3,5.09,11.24.21.66.39,1.32.58,1.99.1.37.02.58-.31.78-.5.31-1.06.42-1.62.54-.13.03-.27.06-.4.07-.27.02-.46-.12-.49-.36-.03-.24.1-.44.36-.5.42-.09.84-.17,1.24-.3.34-.11.34-.12.24-.46-1.02-3.6-2.36-7.07-4.14-10.36-.7-1.3-1.47-2.55-2.43-3.68-.24-.29-.53-.52-.83-.74-.12-.09-.2-.09-.3.03-.27.33-.57.64-.91.89-.11.08-.1.13.02.19.19.09.37.2.53.34.43.37.58.93.38,1.43-.2.5-.73.83-1.29.78-.28-.02-.57-.04-.83-.12-.33-.1-.61-.04-.91.12-1.94,1-3.59,2.37-5.08,3.94-.08.08-.14.16-.22.24-.21.19-.46.2-.64.04-.19-.17-.19-.41,0-.63.59-.67,1.23-1.29,1.91-1.87,1-.87,2.06-1.64,3.23-2.27.14-.08.18-.12.02-.24-1.09-.78-1.19-1.82-.67-3.02.08-.2.11-.36.03-.56-.28-.72-.24-1.48-.27-2.23-.02-.6,0-1.2,0-1.8,0-.19-.06-.29-.25-.36-.62-.22-1.15-.56-1.39-1.22-.25-.66-.14-1.28.33-1.81.46-.52,1.04-.71,1.72-.55.12.03.22.05.32-.06.51-.53,1.16-.73,1.87-.74.22,0,.32-.07.39-.28.22-.63.69-1.02,1.29-1.24.88-.32,1.78-.35,2.68-.08.84.26,1.35.8,1.5,1.69.12.71.26,1.41.47,2.1.13.42.37.73.75.97.63.4,1.31.72,2,1,.65.27,1.08.7,1.33,1.35.47,1.21.8,2.46,1.05,3.72.23,1.11-.92,2.07-2.01,1.71-.23-.08-.27-.04-.27.19-.03,1.17-.07,2.34-.11,3.51-.02.5-.17.72-.49.71-.3-.02-.42-.23-.41-.73Zm-6.02-11.47c-1.01,1.15-2.5,1.52-3.71,1.47-.16,0-.18.07-.18.2.02.94-.04,1.89.04,2.83.09,1.04.53,1.83,1.52,2.27.21.09.37.1.56-.02.54-.34.96-.8,1.33-1.31.22-.3.45-.35.74-.13.65.47,1.3.93,1.92,1.44.49.4.86.4,1.27-.08.66-.76,1.31-1.53,1.92-2.34.13-.17.24-.34.29-.55.04-.15.02-.27-.11-.36-.13-.09-.28-.1-.41,0-.11.07-.2.16-.29.24-.58.52-1.16,1.05-1.74,1.57-.29.26-.45.28-.77.04-.59-.43-1.17-.86-1.75-1.3-.35-.26-.74-.4-1.16-.44-.31-.03-.62-.04-.92-.06-.29-.01-.48-.16-.49-.4-.02-.24.16-.42.47-.46.33-.04.67-.04.98-.19.25-.12.48-.28.49-.57.02-.6,0-1.19,0-1.85Zm.86-.19c0,.3,0,.55,0,.79,0,.36.03.39.37.22.76-.38,1.38-.94,1.96-1.54.09-.1.07-.19.04-.3-.17-.6-.3-1.22-.39-1.84-.09-.61-.45-.92-1.01-1.07-.5-.13-1.01-.14-1.51-.05-.47.08-.92.24-1.19.68-.12.19-.12.29.13.39.83.31,1.39.88,1.57,1.77.07.33.01.67.03.95Zm-4.75,0c0,.23,0,.4,0,.57,0,.16.06.23.22.23.87.01,1.7-.16,2.43-.67.43-.3.73-.7.87-1.21.07-.25,0-.42-.2-.56-.62-.44-1.31-.5-2.03-.37-.7.12-1.08.58-1.24,1.25-.06.27-.06.54-.05.76Zm11.81,4.56c-.13-.65-.32-1.27-.58-1.87-.12-.26-.29-.44-.55-.57-.67-.32-1.37-.59-2.01-.98-.2-.13-.28-.09-.37.12-.48,1.05-1.1,2.01-1.86,2.87-.19.21-.17.29.07.42.15.08.22-.02.31-.1.53-.48,1.06-.97,1.6-1.44.59-.51,1.24-.47,1.8.06.53.5,1.06.99,1.6,1.48Zm.5,1.97c0-.09,0-.18-.07-.26-.23-.31-.5-.58-.78-.83-.1-.08-.16-.06-.21.04-.17.31-.41.56-.71.73-.11.06-.09.12-.01.19.25.24.5.48.78.68.22.15.45.12.67,0,.21-.12.34-.3.33-.55Zm-6.14-3.49c.26-.29.41-.54.58-.79.34-.51.61-1.05.86-1.6.05-.1.1-.22,0-.3-.12-.09-.18.04-.24.1-.34.3-.67.61-1.04.87-.08.05-.15.11-.15.22,0,.48,0,.96,0,1.51Zm-6.23,4.53c-.03.62.31.95.74,1.22.13.08.18.01.2-.1.05-.27.13-.53.27-.76.07-.13,0-.18-.09-.23-.23-.11-.44-.24-.65-.39-.12-.08-.23-.29-.33-.23-.15.08-.12.3-.13.47,0,.03,0,.05,0,.03Zm-1.7-8.16c0,.6.25.87.62,1.06.19.1.25.05.25-.16,0-.48,0-.96.12-1.43.05-.18-.06-.2-.2-.2-.43,0-.79.41-.79.72Zm4.25,9.91c.21,0,.44.02.52-.24.09-.28-.1-.42-.31-.54-.14-.08-.3-.14-.43-.23-.21-.14-.33-.07-.41.15-.02.07-.06.13-.07.2-.16.65-.12.53.37.62.11.02.22.03.32.04Zm2.82-6.53c0-.23,0-.45,0-.68,0-.06.01-.13-.06-.17-.11-.05-.48.14-.5.26-.05.26-.15.5-.33.7-.1.11-.06.17.06.22.23.1.43.24.62.38.05.04.1.1.16.08.08-.04.04-.13.05-.2,0-.2,0-.4,0-.6Zm4.48,2.79c.3.01.83-.54.81-.87,0-.1-.08-.16-.15-.21-.05-.04-.09-.01-.11.03-.17.33-.4.63-.62.92-.05.06-.04.12.08.12Z"/>
      <path class="cls-1" d="m15.01,27.99c-1.57.02-3.05-.07-4.51-.43-.67-.17-1.32-.41-1.93-.73-.22-.11-.44-.15-.68-.16-1.81-.04-3.61-.14-5.38-.59-.58-.15-1.15-.34-1.67-.66-.24-.15-.46-.32-.62-.56-.25-.37-.3-.76-.09-1.16.68-1.29,1.5-2.49,2.41-3.63.2-.25.44-.28.64-.11.21.17.24.41.05.65-.54.7-1.05,1.41-1.53,2.16-.11.17-.11.25.12.26,1.78.11,3.31.91,4.84,1.73.98.52,1.89,1.16,2.92,1.58,1,.41,2.05.6,3.13.7,1.3.12,2.6.11,3.89.05.17,0,.34-.04.52-.04.31-.01.53.15.55.41.02.26-.18.45-.52.48-.73.06-1.47.08-2.14.06Zm-8.52-2.3c-1.23-.72-2.48-1.37-3.88-1.69-.48-.11-.97-.18-1.46-.04-.28.08-.33.27-.13.49.2.21.45.34.71.45.86.36,1.77.53,2.69.65.68.09,1.37.17,2.07.14Z"/>
    </g>
  </g>
</svg>