<?xml version="1.0" encoding="UTF-8"?>
<svg id="Layer_2" data-name="Layer 2" xmlns="http://www.w3.org/2000/svg" viewBox="0 0 26.17 25.96">
  <defs>
    <style>
      .cls-1 {
        fill: #8e9284;
      }

      .cls-2 {
        fill: #a0a9cc;
      }

      .cls-3 {
        fill: #414042;
      }
    </style>
  </defs>
  <g id="Layer_1-2" data-name="Layer 1">
    <g>
      <path class="cls-1" d="m17.46,18.64l-1.69.67-.56,3.59,3.87,2.01-1.55-3.73s1.72-1.2,1.83-1.2,1.62,1.16,1.69,1.34-1.62,3.41-1.27,3.41,2.96-1.27,3.06-1.3.7-.6.6-.88-.92-3.87-.92-3.87l-1.41-.32-1.41,1.27-2.25-.99Z"/>
      <g>
        <path class="cls-2" d="m12.54.92l.85.24s1.83-.77,2.03-.61,1.22,1.02,1.3,1.14.2,1.38.2,1.5-3.7,4.1-3.82,3.98-3.7-3.41-3.74-3.62.28-2.07.28-2.07l1.42-.89,1.46.32Z"/>
        <g id="_2pbkB6.tif" data-name="2pbkB6.tif">
          <g>
            <path class="cls-3" d="m17.37,25.96c-2.71,0-5.43,0-8.14,0-.2,0-.39-.02-.53-.19-.14-.17-.16-.36-.08-.55.08-.2.24-.31.45-.32.28,0,.56-.01.84,0,.18,0,.26-.05.26-.25,0-.76,0-1.51,0-2.27,0-.18-.08-.28-.23-.36-.72-.39-2.03-.28-2.67.23-.38.3-.54.31-.92,0-.64-.51-1.95-.63-2.67-.24-.16.08-.24.19-.24.38,0,.74.01,1.48,0,2.22,0,.21.06.29.28.28.26-.01.53,0,.79,0,.32,0,.53.23.53.53,0,.3-.21.52-.52.52-1.33,0-2.67,0-4,0-.31,0-.51-.21-.51-.52,0-1.27-.02-2.53.01-3.8.02-.71.28-1.36.78-1.89.12-.12.19-.26.21-.42.24-1.65.46-3.3.74-4.94.19-1.1.19-2.2.2-3.3,0-2.34,1.92-4.42,4.25-4.71,2.41-.3,4.9,1.3,5.4,3.95.05.27.09.54.08.81-.1,1.63.19,3.22.43,4.81.17,1.07.34,2.15.47,3.22.04.35.24.56.44.81.05.06.1.06.14,0,.72-.94,1.77-1.3,2.85-1.62.33-.1.65-.18.98-.27.07-.02.13-.03.18-.09.12-.19,0-.89-.18-1.03-1.07-.82-1.85-1.84-2.15-3.18-.03-.15-.06-.3-.06-.45,0-.97-.06-1.94.03-2.9.19-1.98,1.64-3.58,3.59-3.98,2.64-.54,5.05,1.1,5.51,3.75.05.28.07.57.07.86,0,.78.04,1.57-.03,2.34-.11,1.28-.79,2.28-1.69,3.14-.1.09-.19.21-.31.26-.5.23-.42.67-.41,1.09,0,.15.12.16.23.19.77.23,1.56.41,2.3.74,1.39.62,2.13,1.66,2.11,3.21-.01,1.1,0,2.19,0,3.29,0,.45-.18.63-.64.63-2.72,0-5.44,0-8.16,0ZM1.06,23.23c0,.55,0,1,0,1.45,0,.17.06.23.22.22.26,0,.53-.02.79,0,.23.01.29-.07.29-.29-.01-.78,0-1.56,0-2.35,0-.45.17-.79.55-1.02,1.21-.73,2.44-.67,3.68-.11.17.08.28.08.44,0,1.17-.55,2.35-.6,3.53.01.5.27.73.67.71,1.25-.02.75,0,1.5-.01,2.24,0,.2.06.27.27.26.26-.01.53-.01.79,0,.19,0,.25-.06.25-.25,0-.86,0-1.72,0-2.58,0-1.07-.47-1.83-1.47-2.26-.37-.16-.74-.29-1.13-.4-.53-.15-1.06-.3-1.59-.46-.34-.1-.45-.27-.45-.62,0-.07,0-.14,0-.2,0-.31,0-.31-.29-.23-.49.14-.98.17-1.48.04-.43-.11-.43-.1-.43.35,0,.41-.1.55-.51.68-.22.07-.44.13-.66.19-.78.23-1.58.4-2.31.8-.67.37-1.06.92-1.14,1.7-.05.55-.01,1.1-.03,1.55Zm14.79-10.57c.02.24-.04.56.03.87.28,1.29,1.09,2.19,2.19,2.84.52.31,1.08.47,1.69.35,1.9-.39,3.42-2.6,3.11-4.5-.02-.12-.07-.14-.17-.1-.18.07-.37.13-.55.19-1.11.36-2.22.4-3.31-.09-.36-.16-.71-.33-1.07-.49-.54-.24-1.1-.28-1.67-.17-.17.03-.25.1-.25.29.01.25,0,.49,0,.81Zm-5.24-.97c.02-.31,0-.69-.06-1.06-.23-1.63-1.5-2.91-3.19-3.17-1.67-.25-3.15.58-3.91,1.97-.44.82-.47,1.71-.45,2.6,0,.22.13.1.2.05.56-.35,1.06-.76,1.48-1.28.29-.37.54-.41.92-.15,1.44,1,3.09,1.47,4.78,1.79.17.03.26,0,.24-.2-.01-.17,0-.34,0-.57Zm-6.97,1.85c-.03.41.05.77.2,1.11.43.93,1.1,1.62,2.02,2.07.63.31,1.26.31,1.89,0,.92-.45,1.59-1.15,2.01-2.08.12-.26.18-.53.2-.81.03-.27-.07-.37-.33-.42-1.47-.3-2.89-.75-4.18-1.54-.14-.09-.22-.05-.32.06-.33.35-.69.66-1.1.9-.3.18-.49.38-.39.71Zm16.86-2.04c.63.01,1.18-.14,1.73-.35.73-.28.74-.28.55-1.05-.54-2.22-2.91-3.31-4.99-2.31-1.06.51-1.69,1.36-1.9,2.52-.03.17,0,.2.18.17.32-.05.64-.08.96-.04.61.07,1.17.29,1.71.56.57.28,1.14.53,1.76.49Zm-3.05,13.37c-.07-.05-.14-.1-.21-.14-.71-.45-1.42-.9-2.13-1.36-.36-.23-.43-.39-.33-.81.2-.88.4-1.75.6-2.63.01-.06.05-.14,0-.19-.05-.04-.11,0-.17.02-1.07.4-1.6,1.15-1.6,2.29,0,.85,0,1.7,0,2.55,0,.23.06.31.3.31,1.11-.01,2.23,0,3.34,0,.06,0,.13.02.21-.04Zm3.77.02c.09.01.12.02.15.02,1.16,0,2.33,0,3.49,0,.2,0,.24-.08.24-.26,0-.87,0-1.73,0-2.6,0-.22-.03-.44-.07-.66-.17-.84-.75-1.3-1.49-1.61-.07-.03-.15-.1-.21-.04-.07.05-.02.14,0,.21.2.87.4,1.74.6,2.6.1.42.03.57-.34.81-.77.49-1.54.99-2.37,1.51ZM2.79,14.91c-.03.05-.04.07-.05.08-.18,1.21-.36,2.41-.54,3.62-.03.2.08.14.17.1.56-.23,1.15-.37,1.72-.54.64-.19.54-.02.55-.74,0-.13-.05-.22-.15-.3-.18-.15-.36-.31-.53-.47-.51-.49-.88-1.07-1.17-1.75Zm8.07.02c-.1.08-.12.17-.16.25-.32.69-.77,1.29-1.36,1.76-.3.24-.4.49-.37.85.02.17.06.25.23.3.7.19,1.4.36,2.07.64.17.07.16-.01.14-.14-.1-.66-.19-1.33-.29-1.99-.08-.55-.17-1.1-.26-1.66Zm8.5,5.68c-.06,0-.1.03-.13.06-.33.3-.65.6-.98.89-.1.09-.08.18-.03.27.35.72.69,1.43,1.04,2.15.02.05.04.13.11.12.04,0,.07-.07.09-.11.35-.72.69-1.44,1.04-2.15.06-.13.05-.21-.06-.31-.3-.26-.59-.53-.89-.8-.06-.05-.11-.11-.19-.12Zm1.35,3.26s.03.02.05.03c.53-.34,1.06-.67,1.59-1.01.59-.38.5-.2.36-.87-.1-.49-.23-.97-.34-1.45-.02,0-.04,0-.05,0-.53,1.1-1.07,2.21-1.6,3.31Zm-4.31-3.31c-.08.04-.08.09-.09.14-.13.55-.25,1.11-.38,1.66-.04.18.01.27.15.35.5.31.99.63,1.49.94.13.08.26.17.4.26.01-.01.03-.03.04-.04-.53-1.1-1.07-2.21-1.6-3.31Zm4.06-2.63c-.02-.11.08-.31-.18-.23-.62.2-1.23.19-1.85,0-.06-.02-.16-.06-.16.04,0,.18-.08.37.1.52.28.23.56.47.83.72.13.12.23.11.35,0,.24-.22.48-.43.73-.63.14-.11.22-.23.19-.42Zm-2.92,1.12c-.15.04-.29.09-.44.13-.12.03-.12.1-.07.19.18.37.36.75.54,1.12.05.11.11.14.21.04.2-.19.41-.38.62-.56.11-.1.11-.17,0-.26-.22-.19-.44-.38-.65-.57-.06-.05-.11-.11-.2-.09Zm3.65,0c-.07-.03-.13.02-.19.07-.23.19-.45.39-.68.58-.13.1-.11.18,0,.28.19.16.38.33.57.51.13.12.2.12.27-.05.12-.27.26-.53.38-.8.22-.47.34-.4-.29-.58-.02,0-.03,0-.07-.01Z"/>
            <path class="cls-3" d="m11.22,0c.65,0,1.19.19,1.66.55.14.11.24.13.39.01,1.66-1.25,3.8-.34,4.06,1.73.12.95-.16,1.77-.84,2.44-.98.97-1.98,1.92-2.97,2.87-.32.31-.59.3-.91,0-.99-.95-1.98-1.89-2.95-2.85-1.21-1.19-1.16-3.14.1-4.21C10.2.17,10.71,0,11.22,0Zm5.07,2.45c-.02-.42-.24-.97-.85-1.26-.61-.28-1.16-.09-1.65.33-.08.07-.15.14-.23.2-.32.25-.64.25-.95,0-.14-.11-.27-.24-.41-.34-.71-.52-1.57-.39-2.03.31-.46.69-.38,1.64.22,2.23.84.84,1.71,1.66,2.56,2.49.11.11.18.11.29,0,.85-.83,1.71-1.66,2.56-2.49.34-.34.51-.76.5-1.47Z"/>
            <path class="cls-3" d="m6.8,25.96c-.3,0-.53-.24-.52-.54,0-.3.24-.52.55-.51.29,0,.51.23.51.53,0,.3-.23.53-.53.53Z"/>
          </g>
        </g>
      </g>
    </g>
  </g>
</svg>