<?xml version="1.0" encoding="UTF-8"?>
<svg id="Layer_2" data-name="Layer 2" xmlns="http://www.w3.org/2000/svg" viewBox="0 0 32.38 28.51">
  <defs>
    <style>
      .cls-1 {
        fill: #8e9284;
      }

      .cls-2 {
        fill: none;
        stroke: #414042;
        stroke-linecap: round;
        stroke-linejoin: round;
      }

      .cls-3 {
        fill: #a0a9cc;
      }

      .cls-4 {
        fill: #414042;
      }
    </style>
  </defs>
  <g id="Layer_1-2" data-name="Layer 1">
    <g>
      <path class="cls-3" d="m10.48,12.38l-1.13.84-.32,1.02s.6.77,1.09.92,1.65-.28,1.65-.28c0,0,.77-1.3.7-1.44s-.53-1.27-.53-1.27l-1.48.21Z"/>
      <path class="cls-1" d="m.8,8.51c.21-.04,10-5.88,10-5.88l.92.84s-.49,1.27-.46,1.41.32,2.39.32,2.39l-7.25,4.36-1.94-1.65s-.77.49-.95.25-.63-1.72-.63-1.72Z"/>
      <g>
        <g id="VhPj51.tif">
          <g>
            <path class="cls-4" d="m17.42,24.76c-.22.13-.43.27-.65.4-.36.22-.56.17-.79-.2-.15-.25-.32-.49-.46-.75-.11-.2-.22-.23-.41-.1-.31.23-.65.36-1.05.3-.39-.06-.7-.25-.94-.56-.76-1-1.5-2.01-2.26-3.02-.88-1.17-1.77-2.34-2.65-3.51-.76-1.01-1.52-2.03-2.27-3.04-.02-.02-.03-.04-.05-.07-.24-.35-.43-.58-.98-.44-.98.25-1.79-.8-1.43-1.75.08-.22.04-.32-.13-.45-.37-.29-.72-.59-1.07-.89-.12-.1-.21-.12-.37-.05-.43.2-.88.06-1.14-.35-.15-.24-.3-.48-.44-.72-.22-.37-.2-.77.09-1.08.14-.15.13-.27.06-.43C-.36,5.92-.12,3.93,1.28,2.14c2.22-2.84,6.57-2.84,8.85-.05.13.15.24.23.46.16.38-.12.75.05.97.39.16.25.32.51.47.77.23.4.16.87-.21,1.15-.13.1-.16.2-.12.35.12.49.23.97.34,1.46.03.14.09.2.23.21.59.04,1,.35,1.19.9.2.58.04,1.08-.42,1.48-.1.09-.12.17-.06.28.45.91.9,1.81,1.34,2.72.48.98.96,1.96,1.44,2.94.47.95.93,1.89,1.4,2.84.46.94.94,1.87,1.39,2.82.34.72.11,1.38-.57,1.81q-.34.21-.14.55c.15.25.31.49.46.75.15.27.1.49-.16.66-.24.15-.48.3-.72.45Zm-8.25-13.43c-.89.55-1.79,1.1-2.68,1.65-.11.07-.27.11-.13.3.7.93,1.4,1.86,2.1,2.8.78,1.04,1.57,2.08,2.35,3.12.53.71,1.07,1.41,1.59,2.12.13.17.23.18.4.07,1.22-.76,2.45-1.51,3.68-2.26.18-.11.21-.21.12-.39-.35-.7-.7-1.4-1.04-2.11-.56-1.14-1.11-2.27-1.67-3.41-.56-1.14-1.13-2.27-1.68-3.41-.1-.22-.18-.25-.38-.12-.89.56-1.78,1.1-2.68,1.65Zm-3.68-6c1.27-.78,2.53-1.56,3.8-2.33.17-.1.25-.19.09-.38C7.74.61,4.49.37,2.58,2.12c-1.55,1.42-2.03,3.42-1.29,5.38.11.3.15.31.43.14,1.26-.77,2.52-1.54,3.77-2.32Zm1.39,2.27c-1.23.75-2.45,1.51-3.68,2.26-.19.11-.21.2-.03.33.27.21.53.44.8.67.31.26.44.27.78.06.73-.45,1.46-.9,2.19-1.35,1.29-.79,2.58-1.58,3.87-2.38.34-.21.39-.33.31-.7-.08-.34-.17-.67-.23-1.01-.05-.25-.14-.26-.34-.14-1.22.76-2.44,1.5-3.66,2.25Zm-.92-1.49c-.9.55-1.8,1.11-2.7,1.66-.64.39-1.27.79-1.91,1.17-.16.1-.21.19-.09.35.04.05.07.11.1.16q.21.34.55.13c2.97-1.82,5.94-3.64,8.9-5.47.46-.28.44-.2.16-.66-.19-.3-.19-.3-.5-.11-1.51.93-3.01,1.85-4.52,2.78Zm2.7,4.46c1.17-.72,2.34-1.44,3.52-2.16.08-.05.16-.09.23-.15.18-.15.25-.34.14-.56-.09-.19-.35-.25-.58-.14-.06.03-.11.06-.17.1-2.37,1.45-4.73,2.91-7.1,4.36-.34.21-.45.46-.31.68.14.23.41.24.75.03,1.17-.72,2.34-1.44,3.52-2.16Zm6.49,10.45c-.58.36-1.16.71-1.75,1.07-.27.17-.28.19-.08.46.18.25.38.49.57.73.19.24.37.28.64.12.21-.12.42-.26.63-.38.77-.47,1.54-.94,2.3-1.42.27-.17.36-.36.26-.58-.15-.33-.32-.66-.47-.98-.09-.18-.19-.21-.36-.1-.58.37-1.16.72-1.74,1.07Zm1.93,2.4q-.23-.37-.56-.16t-.17.56.58.16.15-.57Z"/>
            <path class="cls-4" d="m10.82,16.56c-.04-.06-.08-.12-.11-.19-.22-.43-.47-.76-1.03-.85-.56-.09-.94-.51-1.13-1.05-.27-.79.2-1.62,1.04-1.84.22-.06.39-.15.54-.33.42-.49,1.08-.65,1.63-.43.57.22.96.83.96,1.5,0,.2,0,.41-.09.59-.11.23-.05.41.08.61.25.39.49.79.73,1.19.44.72.28,1.5-.38,1.91-.67.41-1.44.21-1.88-.5-.12-.2-.25-.4-.37-.61Zm-1.15-2.96c-.28.16-.33.54-.11.78.34.37.79.38,1.24.33.17-.02.35-.02.48-.17.23-.27.41-.56.49-.9.09-.4-.04-.76-.32-.87-.29-.12-.54,0-.78.42-.12.21-.28.32-.53.32-.17,0-.32.04-.47.1Zm2.74,2.21s0,0,0,0c-.1-.16-.2-.32-.3-.49-.07-.12-.15-.15-.26-.04-.1.11-.22.19-.36.23-.14.04-.18.11-.1.24.2.32.39.65.6.97.14.21.39.27.57.16.19-.11.25-.36.12-.6-.08-.16-.19-.31-.28-.47Z"/>
          </g>
        </g>
        <path class="cls-2" d="m17.32,24.76c1.45,2.67,4.84,3.84,7.69,2.96,2.28-.7,3.96-2.71,3.71-5.15-.16-1.56-1.19-3.61-.28-5.1.76-1.25,2.35-1.17,3.44-.42"/>
      </g>
    </g>
  </g>
</svg>